<svg id="Group_2619" data-name="Group 2619" xmlns="http://www.w3.org/2000/svg" xmlns:xlink="http://www.w3.org/1999/xlink" width="28.12" height="27.219" viewBox="0 0 28.12 27.219">
  <defs>
    <clipPath id="clip-path">
      <rect id="Rectangle_1248" data-name="Rectangle 1248" width="28.121" height="27.219" fill="none"/>
    </clipPath>
  </defs>
  <g id="Group_2619-2" data-name="Group 2619" clip-path="url(#clip-path)">
    <path id="Path_2768" data-name="Path 2768" d="M66.264,131.671a1.748,1.748,0,1,0,1.748,1.748,1.738,1.738,0,0,0-1.748-1.748" transform="translate(-52.892 -107.948)" fill="#fd0"/>
    <path id="Path_2769" data-name="Path 2769" d="M101.964,131.671a1.748,1.748,0,1,0,1.748,1.748,1.738,1.738,0,0,0-1.748-1.748" transform="translate(-82.16 -107.948)" fill="#fd0"/>
    <path id="Path_2770" data-name="Path 2770" d="M22.414,57.81H10.721a1.07,1.07,0,0,1-.991-.685L5.172,45.4H1.028a1.064,1.064,0,0,1,0-2.126H5.91a1.07,1.07,0,0,1,.991.685l4.54,11.729H21.657l2.36-6.27a1.066,1.066,0,0,1,2,.739L23.4,57.107a1.088,1.088,0,0,1-.991.7" transform="translate(0 -35.474)" fill="#fd0"/>
    <path id="Path_2771" data-name="Path 2771" d="M72.778,19.707H69.589V16.536a1.028,1.028,0,0,0-2.054-.072v3.243H64.364a1.028,1.028,0,0,0-.072,2.054h3.243v3.171A1.028,1.028,0,0,0,69.589,25V21.761h3.189a1.028,1.028,0,0,0,0-2.054" transform="translate(-51.895 -12.684)" fill="#fd0"/>
  </g>
</svg>
