<svg id="Group_2618" data-name="Group 2618" xmlns="http://www.w3.org/2000/svg" xmlns:xlink="http://www.w3.org/1999/xlink" width="26.587" height="26.557" viewBox="0 0 26.587 26.557">
  <defs>
    <style>
      .cls-1 {
        fill: none;
      }

      .cls-2 {
        clip-path: url(#clip-path);
      }

      .cls-3 {
        fill: #fd0;
      }
    </style>
    <clipPath id="clip-path">
      <rect id="Rectangle_1247" data-name="Rectangle 1247" class="cls-1" width="26.587" height="26.557"/>
    </clipPath>
  </defs>
  <g id="Group_2618-2" data-name="Group 2618" class="cls-2">
    <path id="Path_2759" data-name="Path 2759" class="cls-3" d="M14.2,16.5h0a2.207,2.207,0,0,0,1.57-3.771A2.272,2.272,0,0,0,14.2,12.1a2.179,2.179,0,0,0-2.219,2.147,2.328,2.328,0,0,0,.649,1.606,2.242,2.242,0,0,0,1.57.649" transform="translate(-9.823 -9.916)"/>
    <path id="Path_2760" data-name="Path 2760" class="cls-3" d="M113.086,110.9a2.219,2.219,0,1,0,1.624.686,2.156,2.156,0,0,0-1.624-.686" transform="translate(-90.88 -90.888)"/>
    <path id="Path_2761" data-name="Path 2761" class="cls-3" d="M.773,51.356,1.964,50.9a11.976,11.976,0,0,1,.541-9.327L1.369,41a13.329,13.329,0,0,0-.6,10.356" transform="translate(0 -33.603)"/>
    <path id="Path_2762" data-name="Path 2762" class="cls-3" d="M46.966,1.263a12.314,12.314,0,0,1,9.85,5.07c.09.09.162.2.235.271V1.57H55.789V3.356l-.253-.216A13.279,13.279,0,0,0,41.085,1.371l.577,1.137a11.756,11.756,0,0,1,5.3-1.245" transform="translate(-33.673 0)"/>
    <path id="Path_2763" data-name="Path 2763" class="cls-3" d="M135.217,48.8l-1.191.451a11.976,11.976,0,0,1-.541,9.327l1.137.577a13.329,13.329,0,0,0,.6-10.356" transform="translate(-109.403 -39.996)"/>
    <path id="Path_2764" data-name="Path 2764" class="cls-3" d="M27.87,115.94a12.314,12.314,0,0,1-9.85-5.07c-.09-.09-.162-.2-.235-.271v5.033h1.263v-1.786l.253.216a13.279,13.279,0,0,0,14.451,1.768l-.577-1.137a11.756,11.756,0,0,1-5.3,1.245" transform="translate(-14.576 -90.646)"/>
    <path id="Path_2765" data-name="Path 2765" class="cls-3" d="M82.042,78.182a8.483,8.483,0,0,0,4.42-7.451c0-.2-.018-.4-.018-.631h-2.2a.639.639,0,0,0-.631.631A2.5,2.5,0,0,1,81.1,73.239h-1.57a.628.628,0,0,0-.649.613.64.64,0,0,0,.613.649h.054A2.5,2.5,0,0,1,82.06,77.01v1.173Z" transform="translate(-64.653 -57.453)"/>
    <path id="Path_2766" data-name="Path 2766" class="cls-3" d="M30.355,45.136a.639.639,0,0,0,.631-.631A2.5,2.5,0,0,1,33.494,42a.631.631,0,1,0,0-1.263h-.776A3.282,3.282,0,0,1,29.507,38.1a8.419,8.419,0,0,0-2.923,6.423,3.924,3.924,0,0,0,.036.631Z" transform="translate(-21.788 -31.226)"/>
    <path id="Path_2767" data-name="Path 2767" class="cls-3" d="M34.6,34.915a2.5,2.5,0,0,1-2.508,2.508h-3.41a8.471,8.471,0,0,0,10.338,5.7V41.212a.639.639,0,0,0-.631-.631,2.517,2.517,0,0,1-.018-5.033h1.57a.639.639,0,0,0,.631-.631,2.5,2.5,0,0,1,2.508-2.508H44.9A8.572,8.572,0,0,0,36.785,26.4a8.345,8.345,0,0,0-3.626.83,1.378,1.378,0,0,0-.144.6,1.417,1.417,0,0,0,1.425,1.425h.794a2.517,2.517,0,1,1,.09,5.033h-.09a.628.628,0,0,0-.631.631" transform="translate(-23.51 -21.637)"/>
  </g>
</svg>
