<?xml version="1.0" standalone="no"?>
<!DOCTYPE svg PUBLIC "-//W3C//DTD SVG 1.1//EN" "http://www.w3.org/Graphics/SVG/1.1/DTD/svg11.dtd" >
<svg xmlns="http://www.w3.org/2000/svg">
<metadata>
<json>
<![CDATA[
{
	"fontFamily": "icomoon",
	"majorVersion": 1,
	"minorVersion": 0,
	"version": "Version 1.0",
	"fontId": "icomoon",
	"psName": "icomoon",
	"subFamily": "Regular",
	"fullName": "icomoon",
	"description": "Font generated by IcoMoon."
}
]]>
</json>
</metadata>
<defs>
<font id="icomoon" horiz-adv-x="1024">
<font-face units-per-em="1024" ascent="960" descent="-64" />
<missing-glyph horiz-adv-x="1024" />
<glyph unicode="&#x20;" horiz-adv-x="512" d="" />
<glyph unicode="&#xe901;" horiz-adv-x="1026" d="M1025.754 602.798v-520.783c0.002-0.295 0.003-0.643 0.003-0.992 0-80.079-64.917-144.997-144.997-144.997-0.24 0-0.48 0.001-0.719 0.002h-734.366c-0.203-0.001-0.442-0.002-0.682-0.002-80.079 0-144.997 64.917-144.997 144.997 0 0.349 0.001 0.697 0.004 1.045v-0.053 730.641c-0.003 0.353-0.005 0.771-0.005 1.189 0 80.553 65.165 145.885 145.655 146.156h539.308l36.772-243.575z" />
<glyph unicode="&#xe902;" horiz-adv-x="1026" d="M684.93 959.661l339.806-356.834h-226.292c-0.025 0-0.055 0-0.085 0-62.692 0-113.514 50.822-113.514 113.514 0 0.030 0 0.060 0 0.090v-0.005z" />
<glyph unicode="&#xe903;" horiz-adv-x="1026" d="M271.607 228.85h67.605v-65.285h-67.605v65.285z" />
<glyph unicode="&#xe904;" horiz-adv-x="1026" d="M496.117 368.246c11.47-7.225 20.417-17.528 25.799-29.754l0.168-0.427v38.583h65.059v-213.082h-65.059v38.555c-5.546-12.647-14.494-22.942-25.691-29.991l-0.276-0.162c-11.366-6.965-25.126-11.090-39.849-11.090-0.758 0-1.514 0.011-2.267 0.033l0.111-0.003c-0.388-0.006-0.846-0.010-1.305-0.010-16.996 0-32.843 4.914-46.2 13.4l0.351-0.208c-14.269 9.334-25.514 22.213-32.637 37.409l-0.232 0.552c-7.599 17.13-12.024 37.113-12.024 58.129s4.424 40.998 12.393 59.067l-0.369-0.938c7.385 15.67 18.612 28.486 32.497 37.579l0.344 0.211c12.997 8.277 28.837 13.192 45.825 13.192 0.467 0 0.933-0.004 1.399-0.011l-0.070 0.001c0.636 0.019 1.384 0.029 2.134 0.029 14.731 0 28.498-4.125 40.21-11.282l-0.339 0.192zM441.298 308.25c-7.994-10.488-12.807-23.775-12.807-38.187s4.813-27.699 12.92-38.342l-0.113 0.155c8.641-8.497 20.502-13.744 33.589-13.744 13.284 0 25.306 5.406 33.985 14.137l0.002 0.002c8.207 10.309 13.167 23.52 13.167 37.89s-4.961 27.581-13.263 38.014l0.096-0.125c-8.123 8.609-19.609 13.969-32.348 13.969-0.512 0-1.021-0.009-1.528-0.026l0.074 0.002c-0.543 0.024-1.18 0.038-1.82 0.038-12.581 0-23.926-5.289-31.935-13.764l-0.020-0.021z" />
<glyph unicode="&#xe905;" horiz-adv-x="1026" d="M636.673 461.224c7.712 6.083 17.57 9.757 28.287 9.757s20.575-3.674 28.384-9.831l-0.097 0.074c6.579-5.871 10.702-14.375 10.702-23.842 0-0.28-0.004-0.559-0.011-0.837l0.001 0.041c0.004-0.185 0.006-0.404 0.006-0.623 0-9.406-4.125-17.848-10.664-23.617l-0.034-0.030c-7.712-6.083-17.57-9.757-28.287-9.757s-20.575 3.674-28.384 9.831l0.097-0.074c-6.574 5.794-10.699 14.232-10.699 23.634 0 0.223 0.002 0.446 0.007 0.669l-0.001-0.033c-0.007 0.241-0.010 0.524-0.010 0.808 0 9.463 4.123 17.963 10.671 23.801l0.032 0.028zM697.376 163.565h-65.285v213.054h65.285z" />
<glyph unicode="&#xe906;" d="M378.961 960h266.098c0.089 0 0.194 0 0.3 0 209.129 0 378.661-169.533 378.661-378.661 0-0.105 0-0.211 0-0.316v0.016-266.078c0-0.089 0-0.194 0-0.3 0-209.129-169.533-378.661-378.661-378.661-0.105 0-0.211 0-0.316 0h-266.082c-0.089 0-0.194 0-0.3 0-209.129 0-378.661 169.533-378.661 378.661 0 0.105 0 0.211 0 0.316v-0.016 266.078c0 0.089 0 0.194 0 0.3 0 209.129 169.533 378.661 378.661 378.661 0.105 0 0.211 0 0.316 0h-0.016zM645.059-30.441c190.669 0.227 345.175 154.733 345.402 345.38v266.099c-0.227 190.669-154.733 345.175-345.38 345.402h-266.119c-190.669-0.227-345.175-154.733-345.402-345.38v-266.099c0.227-190.669 154.733-345.175 345.38-345.402h0.021z" />
<glyph unicode="&#xe907;" d="M667.212 404.093v0c-5.593 5.6-13.324 9.063-21.864 9.063s-16.27-3.464-21.863-9.063v0l-80.203-80.143v360.344c0 17.078-13.844 30.923-30.923 30.923v0c-0.006 0-0.013 0-0.020 0-17.067 0-30.903-13.836-30.903-30.903 0-0.007 0-0.014 0-0.021v0.001-361.083l-80.942 80.882c-5.593 5.6-13.324 9.063-21.864 9.063s-16.27-3.464-21.863-9.063v0c-5.589-5.595-9.045-13.32-9.045-21.854s3.456-16.259 9.045-21.854l138.832-138.951c4.176-4.179 9.946-6.763 16.32-6.763s12.144 2.585 16.32 6.763l138.952 138.952c5.599 5.593 9.063 13.324 9.063 21.864 0 8.53-3.456 16.252-9.043 21.844v0z" />
<glyph unicode="&#xe908;" glyph-name="Behance" data-tags="Behance" d="M127.659 414.208h157.867c1.623 0.058 3.53 0.090 5.445 0.090 21.051 0 41.177-3.963 59.672-11.184l-1.117 0.384c24.304-10.638 40.978-34.477 40.978-62.211 0-1.966-0.084-3.913-0.248-5.837l0.017 0.251c0.291-2.554 0.457-5.514 0.457-8.513 0-30.408-17.065-56.83-42.141-70.211l-0.428-0.209c-17.134-7.146-37.040-11.296-57.915-11.296-2.47 0-4.927 0.058-7.369 0.173l0.345-0.013h-155.563zM127.659 658.176h139.477c2.035 0.061 4.429 0.096 6.831 0.096 24.576 0 48.303-3.636 70.671-10.4l-1.727 0.449c20.576-8.786 34.734-28.849 34.734-52.218 0-2.197-0.125-4.364-0.369-6.496l0.024 0.261c0.201-1.834 0.316-3.96 0.316-6.114 0-20.49-10.383-38.554-26.175-49.219l-0.21-0.134c-17.998-9.982-39.468-15.858-62.31-15.858-1.915 0-3.82 0.041-5.715 0.123l0.27-0.009h-155.819zM0 767.915v-631.893h288.64c1.072-0.009 2.34-0.015 3.609-0.015 30.761 0 60.794 3.112 89.803 9.038l-2.874-0.49c27.606 5.353 51.974 16.464 72.775 32.071l-0.455-0.327c18.177 13.537 33.288 30.048 44.88 48.95l0.432 0.757c17.942 27.718 28.608 61.599 28.608 97.971 0 0.987-0.008 1.972-0.024 2.956l0.002-0.148c0.050 1.517 0.078 3.301 0.078 5.092 0 32.41-9.309 62.646-25.399 88.18l0.403-0.685c-17.772 25.936-43.207 45.48-73.014 55.512l-1.013 0.296c19.144 8.991 35.384 21.082 48.786 35.803l0.11 0.123c18.566 23.476 29.781 53.507 29.781 86.158 0 2.426-0.062 4.838-0.184 7.234l0.014-0.336c0.035 1.251 0.055 2.723 0.055 4.2 0 34.596-11.018 66.618-29.737 92.75l0.327-0.48c-36.417 41.788-89.732 68.047-149.179 68.047-5.927 0-11.793-0.261-17.587-0.772l0.75 0.053zM-315.947 449.664l576.673 581.058 580.664-576.282-576.673-581.058-580.664 576.282zM662.4 738.603h274.475v-78.677h-274.475v78.677zM623.061 698.923l175.524 176.858 177.615-176.275-175.524-176.858-177.615 176.275zM727.424 488.32c17.685 16.657 41.579 26.893 67.864 26.893 2.123 0 4.231-0.067 6.321-0.198l-0.286 0.014c1.033 0.035 2.248 0.055 3.467 0.055 26.713 0 51.204-9.511 70.272-25.332l-0.182 0.146c20.021-18.441 32.636-44.659 33.023-73.829l0.001-0.070h-213.333c3.137 28.186 15.131 53.107 33.094 72.396l-0.070-0.076zM632.149 551.040c-40.824-44.514-65.842-104.101-65.842-169.532 0-5.909 0.204-11.77 0.605-17.577l-0.043 0.784c-0.63-6.312-0.989-13.642-0.989-21.056 0-65.691 28.192-124.798 73.136-165.882l0.172-0.155c44.22-35.815 101.161-57.498 163.167-57.498 1.287 0 2.571 0.009 3.854 0.028l-0.194-0.002c4.052-0.253 8.789-0.397 13.558-0.397 64.388 0 122.643 26.256 164.643 68.646l0.018 0.018c23.287 21.908 39.678 50.907 45.722 83.536l0.145 0.944h-126.421c-6.485-12.7-15.082-23.41-25.442-32.084l-0.158-0.129c-17.562-13.381-39.81-21.438-63.939-21.438-1.657 0-3.305 0.038-4.944 0.113l0.232-0.008c-1.050-0.031-2.284-0.049-3.523-0.049-23.878 0-46.221 6.566-65.324 17.992l0.581-0.322c-30.177 20.307-49.765 54.333-49.765 92.935 0 1.994 0.052 3.975 0.155 5.943l-0.012-0.275h345.088c0.192 5.657 0.301 12.305 0.301 18.979 0 26.006-1.66 51.625-4.879 76.756l0.311-2.977c-5.361 36.606-18.765 69.317-38.373 97.372l0.485-0.732c-20.162 30.208-47.923 53.898-80.592 68.636l-1.2 0.484c-31.631 13.909-68.505 22.005-107.271 22.005-1.453 0-2.903-0.011-4.35-0.034l0.218 0.003c-2.661 0.11-5.784 0.173-8.922 0.173-62.371 0-118.953-24.783-160.437-65.039l0.057 0.056zM318.891 366.123l480.898 484.996 484.905-480.808-480.898-484.996-484.905 480.808z" />
<glyph unicode="&#xe909;" glyph-name="calender" data-tags="calender" d="M885.024 821.024h-41.6v82.752c0 22.975-18.625 41.6-41.6 41.6v0h-41.6c-22.975 0-41.6-18.625-41.6-41.6v-82.752h-413.856v82.752c0 0 0 0 0 0 0 22.93-18.552 41.527-41.465 41.6h-41.607c-22.975 0-41.6-18.625-41.6-41.6v-82.752h-41.6c-68.431-0.345-123.782-55.853-123.872-124.311v-621.737c0.073-68.648 55.704-124.279 124.345-124.352h746.055c68.648 0.073 124.279 55.704 124.352 124.345v621.735c-0.091 68.635-55.715 124.247-124.345 124.32h-0.007zM926.624 74.976c0-22.975-18.625-41.6-41.6-41.6v0h-746.048c-22.975 0-41.6 18.625-41.6 41.6v454.4h829.248z" />
<glyph unicode="&#xe90a;" d="M489.033 74.13c-35.306 0-63.927-28.621-63.927-63.927s28.621-63.927 63.927-63.927c35.306 0 63.927 28.621 63.927 63.927v0c0.001 0.109 0.001 0.238 0.001 0.367 0 35.104-28.457 63.561-63.561 63.561-0.129 0-0.258 0-0.387-0.001h0.020z" />
<glyph unicode="&#xe90b;" d="M724.261 74.13c-35.306 0-63.927-28.621-63.927-63.927s28.621-63.927 63.927-63.927c35.306 0 63.927 28.621 63.927 63.927v0c0.001 0.109 0.001 0.238 0.001 0.367 0 35.104-28.457 63.561-63.561 63.561-0.129 0-0.258 0-0.387-0.001h0.020z" />
<glyph unicode="&#xe90c;" d="M819.712 124.855h-427.63c-16.441 0.116-30.461 10.354-36.15 24.786l-0.092 0.265-166.693 428.8h-151.552c-20.752 0.928-37.225 17.978-37.225 38.875s16.473 37.947 37.142 38.872l0.083 0.003h178.542c16.441-0.116 30.461-10.354 36.15-24.786l0.092-0.265 166.034-428.946h373.614l86.309 229.303c5.657 15 19.891 25.475 36.571 25.475 21.533 0 38.988-17.456 38.988-38.988 0-4.852-0.886-9.497-2.506-13.781l0.089 0.268-95.707-254.171c-5.763-14.813-19.741-25.2-36.194-25.599l-0.048-0.001z" />
<glyph unicode="&#xe90d;" d="M763.721 684.873h-116.626v115.968c0.001 0.092 0.001 0.201 0.001 0.31 0 20.763-16.832 37.595-37.595 37.595-19.946 0-36.264-15.533-37.518-35.162l-0.006-0.11v-118.601h-115.968c-0.092 0.001-0.201 0.001-0.31 0.001-20.763 0-37.595-16.832-37.595-37.595 0-19.946 15.533-36.264 35.162-37.518l0.11-0.006h118.601v-115.968c0-0.044 0-0.096 0-0.147 0-20.763 16.832-37.595 37.595-37.595 19.94 0 36.255 15.524 37.517 35.146l0.006 0.11v118.455h116.626c20.038 0.912 35.938 17.379 35.938 37.559s-15.9 36.647-35.856 37.556l-0.082 0.003z" />
<glyph unicode="&#xe90e;" d="M913.774 941.714c63.32 0 114.651-51.331 114.651-114.651s-51.331-114.651-114.651-114.651c-63.32 0-114.651 51.331-114.651 114.651v0c0 63.32 51.331 114.651 114.651 114.651v0z" />
<glyph unicode="&#xe90f;" glyph-name="cartdownload" data-tags="cartdownload" d="M526.24 92.576c37.98 0 68.768-30.788 68.768-68.768s-30.788-68.768-68.768-68.768c-37.98 0-68.768 30.788-68.768 68.768v0c0.036 37.965 30.803 68.732 68.764 68.768h0.004zM778.688 92.576c37.98 0 68.768-30.788 68.768-68.768s-30.788-68.768-68.768-68.768c-37.98 0-68.768 30.788-68.768 68.768v0c0.036 37.965 30.803 68.732 68.764 68.768h0.004zM880.576 147.136h-458.848c-17.658 0.002-32.758 10.954-38.877 26.437l-0.099 0.283-178.208 460.608h-162.816c-23.081 0-41.792 18.711-41.792 41.792s18.711 41.792 41.792 41.792v0h191.488c17.658-0.002 32.758-10.954 38.877-26.437l0.099-0.283 178.208-460.608h401.28l92.576 245.952c6.127 15.957 21.325 27.078 39.12 27.078 23.084 0 41.798-18.713 41.798-41.798 0-5.289-0.982-10.348-2.774-15.006l0.097 0.286-102.752-273.024c-6.126-15.954-21.322-27.072-39.114-27.072-0.019 0-0.038 0-0.057 0h0.003zM422.656 617.824l185.376-200.096c11.644-12.829 28.385-20.852 46.999-20.852 18.523 0 35.191 7.945 46.781 20.612l0.043 0.048 186.016 200.544-48.672 45.12-150.688-162.464v427.264h-66.368v-427.84l-150.816 162.784z" />
<glyph unicode="&#xe910;" d="M991.956 354.457c0-232.034-188.101-420.135-420.135-420.135s-420.135 188.101-420.135 420.135c0 232.034 188.101 420.135 420.135 420.135s420.135-188.101 420.135-420.135z" />
<glyph unicode="&#xe911;" d="M482.654 174.912l-144.689 163.412 52.421 46.425 98.265-110.981 267.594 237.012 46.425-52.416z" />
<glyph unicode="&#xe912;" d="M244.372 776.99c0-4.574-1.521-111.887-133.868-111.887-3.527-0.141-6.332-3.034-6.332-6.582s2.806-6.441 6.32-6.582h0.013c131.973 0 133.849-107.323 133.868-111.892-0.005-0.096-0.008-0.209-0.008-0.322 0-3.516 2.85-6.366 6.366-6.366 3.403 0 6.182 2.669 6.358 6.028l0.001 0.016c8.96 92.47 76.564 109.844 111.961 112.532h1.31c3.118-0.254 6.749-0.399 10.414-0.399 3.82 0 7.604 0.157 11.344 0.466l-0.491-0.033c0.359 0.078 0.67 0.176 0.968 0.299l-0.038-0.014c0.415 0.084 0.777 0.197 1.124 0.34l-0.040-0.015c0.396 0.213 0.738 0.446 1.053 0.711l-0.009-0.007c0.316 0.214 0.593 0.436 0.85 0.678l-0.004-0.003c0.448 0.573 0.875 1.217 1.251 1.893l0.039 0.076c-1.515-7.348-1.329-6.592-1.142-5.836l1.684 8.086c0 0.103 0 0.217 0 0.32v0 0 0c0 0.103 0 0.212 0 0.32-0.056 0.351-0.134 0.66-0.234 0.957l0.012-0.042c-0.061 0.868-0.381 1.651-0.883 2.283l0.007-0.009c-0.223 0.397-0.466 0.741-0.74 1.056l0.006-0.008c-0.254 0.242-0.53 0.465-0.824 0.665l-0.022 0.014c-0.305 0.252-0.647 0.483-1.009 0.682l-0.034 0.017c-0.301 0.122-0.663 0.234-1.037 0.316l-0.046 0.009c-0.263 0.111-0.574 0.208-0.897 0.275l-0.034 0.006c-3.215 0.271-6.958 0.426-10.736 0.426-3.507 0-6.983-0.133-10.422-0.395l0.457 0.028c-15.722 1.051-30.356 4.415-43.995 9.762l0.997-0.344c-41.979 16.507-65.807 51.2-70.838 103.094-0.179 3.372-2.957 6.039-6.358 6.039-3.516 0-6.367-2.85-6.367-6.367 0-0.115 0.003-0.23 0.009-0.343l-0.001 0.016z" />
<glyph unicode="&#xe913;" d="M500.002 606.538c0.145 0.005 0.316 0.008 0.487 0.008 8.366 0 15.148-6.782 15.148-15.148s-6.782-15.148-15.148-15.148c-8.366 0-15.148 6.782-15.148 15.148 0 0.001 0 0.001 0 0.002v0c-0.001 0.068-0.002 0.148-0.002 0.229 0 8.148 6.535 14.77 14.65 14.91h0.013z" />
<glyph unicode="&#xe914;" d="M353.383 788.175c0.142 0.005 0.31 0.008 0.478 0.008 8.363 0 15.143-6.78 15.143-15.143s-6.78-15.143-15.143-15.143c-8.363 0-15.143 6.78-15.143 15.143 0 0.001 0 0.002 0 0.002v0c-0.001 0.069-0.002 0.151-0.002 0.233 0 8.148 6.539 14.768 14.655 14.9h0.012z" />
<glyph unicode="&#xe915;" d="M564.598 847.089c0.144 0.005 0.313 0.008 0.482 0.008 8.363 0 15.143-6.78 15.143-15.143s-6.78-15.143-15.143-15.143c-8.363 0-15.143 6.78-15.143 15.143 0 0.001 0 0.002 0 0.002v0c-0.001 0.068-0.002 0.148-0.002 0.228 0 8.147 6.536 14.768 14.65 14.905h0.013z" />
<glyph unicode="&#xe916;" d="M346.068 530.85c0.217 0.007 0.472 0.012 0.729 0.012 12.548 0 22.72-10.172 22.72-22.72s-10.172-22.72-22.72-22.72c-12.548 0-22.72 10.172-22.72 22.72 0 0.001 0 0.002 0 0.003v0c-0.002 0.103-0.003 0.225-0.003 0.348 0 12.221 9.803 22.151 21.975 22.357h0.019z" />
<glyph unicode="&#xe917;" d="M53.991 845.243c0.216 0.007 0.469 0.012 0.724 0.012 12.545 0 22.715-10.17 22.715-22.715s-10.17-22.715-22.715-22.715c-12.545 0-22.715 10.17-22.715 22.715 0 0.003 0 0.006 0 0.009v0c-0.002 0.103-0.003 0.225-0.003 0.347 0 12.219 9.804 22.147 21.975 22.348h0.019z" />
<glyph unicode="&#xe918;" d="M192.891 960c0.216 0.007 0.469 0.012 0.724 0.012 12.548 0 22.72-10.172 22.72-22.72s-10.172-22.72-22.72-22.72c-12.548 0-22.72 10.172-22.72 22.72 0 0.001 0 0.002 0 0.003v0c-0.002 0.103-0.003 0.225-0.003 0.348 0 12.222 9.806 22.154 21.98 22.357h0.019z" />
<glyph unicode="&#xe919;" glyph-name="close" data-tags="close" d="M637.702 447.976l360.255 360.302c15.62 15.999 25.256 37.901 25.256 62.053 0 49.075-39.783 88.859-88.859 88.859-24.117 0-45.99-9.608-62-25.205l-360.283-360.283-360.35 360.302c-16.080 16.068-38.287 26.005-62.815 26.005-49.080 0-88.868-39.787-88.868-88.868 0-24.552 9.956-46.778 26.052-62.862l360.303-360.303-360.302-360.255c-16.962-16.211-27.507-39.014-27.507-64.279 0-49.075 39.783-88.859 88.859-88.859 25.265 0 48.068 10.545 64.247 27.473l0.032 0.034 360.35 360.255 360.302-360.255c16.072-16.066 38.271-26.002 62.792-26.002 49.053 0 88.818 39.765 88.818 88.818 0 24.532-9.946 46.741-26.026 62.815v0z" />
<glyph unicode="&#xe91a;" glyph-name="crepixa-icon" data-tags="crepixa icon" d="M53.694 553.159v-53.694h133.668v-93.726c0-22.059-17.883-39.942-39.942-39.942h-93.726v-53.688h92.377c52.456 0.003 94.979 42.528 94.979 94.985v146.065zM0 499.417h53.694v-133.62h-53.694v133.62z" />
<glyph unicode="&#xe91b;" glyph-name="crepixablack" data-tags="crepixablack" d="M434.814 579.333c-0.015 0.408-0.023 0.887-0.023 1.368 0 22.388 18.149 40.536 40.536 40.536 0.648 0 1.293-0.015 1.934-0.045l-0.091 0.003c0.648 0.040 1.406 0.063 2.169 0.063 11.941 0 22.568-5.628 29.373-14.376l0.063-0.084-13.736-12.902c-3.523 5.228-9.422 8.621-16.113 8.621-0.266 0-0.53-0.005-0.793-0.016l0.038 0.001c-12.749 0-21.681-9.263-21.681-23.17s8.932-23.329 21.681-23.329c0.101-0.002 0.22-0.003 0.339-0.003 6.811 0 12.834 3.376 16.487 8.546l0.042 0.063 13.736-12.735c-6.796-8.929-17.43-14.635-29.396-14.635-0.777 0-1.548 0.024-2.313 0.071l0.105-0.005c-0.539-0.026-1.17-0.040-1.805-0.040-22.411 0-40.578 18.168-40.578 40.578 0 0.523 0.010 1.044 0.030 1.562l-0.002-0.075zM522.515 539.294v79.914h21.011v-10.924c6.067 7.563 15.161 12.482 25.415 12.905l0.068 0.002v-20.517c-1.578 0.317-3.393 0.499-5.249 0.499-0.19 0-0.38-0.002-0.569-0.006h0.028c-7.845-0.126-14.852-3.607-19.668-9.066l-0.025-0.029v-52.783zM576.95 579.333c-0.011 0.358-0.018 0.78-0.018 1.202 0 22.46 18.207 40.667 40.667 40.667 0.248 0 0.496-0.002 0.744-0.007l-0.037 0.001c23.827 0 40.029-17.873 40.029-44.013v-4.655h-59.397c1.5-10.559 10.479-18.589 21.334-18.589 0.586 0 1.166 0.023 1.74 0.069l-0.076-0.005c8.162 0.127 15.604 3.107 21.397 7.983l-0.052-0.042 9.263-13.563c-8.483-6.925-19.43-11.121-31.358-11.121-0.551 0-1.101 0.009-1.648 0.027l0.080-0.002c-24.301 0.023-42.668 16.417-42.668 42.049zM618.305 604.467c-0.161 0.005-0.349 0.008-0.539 0.008-10.075 0-18.338-7.758-19.141-17.626l-0.004-0.068h39.373c-0.42 9.888-8.538 17.745-18.491 17.745-0.421 0-0.84-0.014-1.254-0.042l0.056 0.003zM721.557 539.294v8.266c-6.039-6.331-14.54-10.268-23.96-10.268-0.477 0-0.952 0.010-1.424 0.030l0.067-0.002c-0.347-0.016-0.755-0.025-1.164-0.025-14.662 0-26.556 11.849-26.628 26.494v0.007c0 18.697 15.053 25.814 27.792 25.814 0.559 0.034 1.213 0.053 1.871 0.053 9.177 0 17.476-3.76 23.441-9.823l0.004-0.004v10.752c0 8.108-6.949 13.405-17.538 13.405-9.066-0.008-17.292-3.6-23.339-9.435l0.010 0.010-7.941 14.061c9.097 7.816 21.018 12.574 34.051 12.574 0.302 0 0.603-0.003 0.903-0.008l-0.045 0.001c18.204 0 34.909-7.284 34.909-30.255v-51.624zM721.557 558.485v9.933c-3.864 4.293-9.44 6.981-15.644 6.981-0.434 0-0.865-0.013-1.292-0.039l0.059 0.003c-8.276 0-15.053-4.301-15.053-12.079 0-7.447 6.777-11.743 15.053-11.743 0.369-0.023 0.799-0.036 1.233-0.036 6.204 0 11.78 2.688 15.627 6.962l0.017 0.019zM767.562 559.151v41.691h-13.238v18.367h13.238v21.834h21.178v-21.834h16.207v-18.367h-16.207v-36.068c0-4.957 2.639-8.769 7.275-8.769 0.101-0.003 0.219-0.005 0.338-0.005 2.62 0 5.036 0.877 6.97 2.353l-0.028-0.020 4.468-15.881c-4.283-3.243-9.7-5.194-15.572-5.194-0.69 0-1.374 0.027-2.051 0.080l0.090-0.006c-14.727-0.023-22.668 7.592-22.668 21.821zM817.194 640.386c0 6.941 5.627 12.567 12.567 12.567s12.567-5.627 12.567-12.567c0-6.941-5.627-12.567-12.567-12.567v0c-6.915 0.063-12.505 5.652-12.567 12.561v0.006zM819.344 539.294v79.914h21.015v-79.914zM881.892 539.294l-32.116 79.914h22.505l20.852-55.589 20.843 55.589h22.672l-32.116-79.914zM940.954 579.333c-0.011 0.355-0.017 0.774-0.017 1.193 0 22.465 18.211 40.676 40.676 40.676 0.248 0 0.496-0.002 0.744-0.007l-0.037 0.001c23.827 0 40.029-17.873 40.029-44.013v-4.655h-59.383c1.493-10.558 10.47-18.59 21.322-18.59 0.588 0 1.171 0.024 1.747 0.070l-0.076-0.005c8.162 0.128 15.604 3.107 21.397 7.983l-0.052-0.042 9.263-13.563c-8.487-6.925-19.438-11.121-31.369-11.121-0.546 0-1.090 0.009-1.631 0.026l0.079-0.002c-24.325 0.023-42.691 16.417-42.691 42.049zM982.319 604.467c-0.162 0.005-0.352 0.008-0.544 0.008-10.075 0-18.338-7.758-19.141-17.627l-0.004-0.068h39.377c-0.423 9.888-8.541 17.744-18.495 17.744-0.42 0-0.837-0.014-1.249-0.042l0.056 0.003zM460.958 431.709v-40.699h-21.025v110.355h21.011v-10.091c5.7 7.376 14.549 12.079 24.496 12.079 0.061 0 0.122 0 0.182-0.001h-0.009c20.513 0 35.402-15.22 35.402-41.858s-14.895-42.026-35.402-42.026c-0.059 0-0.128-0.001-0.197-0.001-9.97 0-18.825 4.776-24.402 12.165l-0.056 0.077zM499.181 461.498c0 13.726-8.108 23.166-20.182 23.166-7.329-0.177-13.806-3.678-18.002-9.048l-0.039-0.052v-28.295c4.282-5.364 10.731-8.842 17.999-9.098l0.042-0.001c12.074-0.009 20.182 9.407 20.182 23.319zM534.263 522.543c0 6.941 5.627 12.567 12.567 12.567s12.567-5.627 12.567-12.567c0-6.941-5.627-12.567-12.567-12.567v0c-6.916 0.060-12.507 5.651-12.567 12.562v0.006zM536.413 421.45v79.914h21.011v-79.914zM627.745 421.45l-18.204 26.968-18.362-26.968h-23.329l28.29 41.030-26.643 38.884h23.505l16.538-24.669 16.379 24.669h23.496l-26.806-38.884 28.625-41.030zM650.91 461.489c-0.011 0.355-0.018 0.774-0.018 1.193 0 22.462 18.209 40.671 40.671 40.671 0.248 0 0.496-0.002 0.744-0.007l-0.037 0.001c23.822 0 40.029-17.873 40.029-44.013v-4.627h-59.397c1.5-10.561 10.481-18.594 21.339-18.594 0.586 0 1.166 0.023 1.74 0.069l-0.076-0.005c8.161 0.125 15.602 3.105 21.392 7.983l-0.051-0.042 9.263-13.563c-8.481-6.923-19.425-11.117-31.349-11.117-0.553 0-1.104 0.009-1.652 0.027l0.080-0.002c-24.315 0-42.678 16.384-42.678 42.026zM692.271 486.623c-0.163 0.005-0.355 0.008-0.547 0.008-10.073 0-18.334-7.759-19.132-17.627l-0.004-0.068h39.377c-0.425 9.889-8.545 17.744-18.5 17.744-0.42 0-0.837-0.014-1.25-0.042l0.056 0.003zM747.534 421.45v110.373h21.015v-110.359zM433.003 314.028l9.095 14.722c7.428-6.375 17.017-10.422 27.536-10.92l0.103-0.004c9.095 0 13.4 3.645 13.4 8.611 0 13.233-47.476 2.481-47.476 33.913 0 13.405 11.748 25.135 32.763 25.135 0.208 0.003 0.453 0.005 0.699 0.005 11.964 0 22.966-4.116 31.668-11.010l-0.106 0.081-8.439-14.397c-6.029 5.742-14.207 9.275-23.211 9.275-0.158 0-0.315-0.001-0.472-0.003h0.024c-7.615 0-12.567-3.477-12.567-7.945 0-11.916 47.318-1.987 47.318-34.248 0-14.559-12.4-25.647-34.579-25.647-0.401-0.011-0.873-0.017-1.347-0.017-13.128 0-25.157 4.704-34.494 12.518l0.084-0.069zM523.003 323.454v41.695h-13.224v18.358h13.224v21.844h21.178v-21.844h16.216v-18.358h-16.202v-36.068c0-4.966 2.653-8.769 7.289-8.769 0.102-0.003 0.221-0.005 0.341-0.005 2.618 0 5.031 0.877 6.962 2.353l-0.028-0.020 4.464-15.886c-4.28-3.243-9.694-5.195-15.564-5.195-0.693 0-1.38 0.027-2.060 0.081l0.090-0.006c-14.736-0.019-22.686 7.592-22.686 21.821zM628.736 303.602v10.096c-6.859-7.453-16.661-12.106-27.549-12.106-0.203 0-0.406 0.002-0.609 0.005h0.031c-17.534 0-25.809 9.598-25.809 25.135v56.739h21.015v-48.468c0-11.092 5.79-14.727 14.727-14.727 7.387 0.126 13.929 3.638 18.156 9.048l0.039 0.052v54.095h21.011v-79.909zM725.532 303.602v10.24c-5.72-7.466-14.637-12.236-24.667-12.246h-0.002c-20.187 0-35.402 15.225-35.402 41.863 0 26.14 15.053 42.021 35.402 42.021 0.026 0 0.057 0 0.087 0 10.009 0 18.902-4.775 24.526-12.17l0.055-0.076v40.704h21.178v-110.359zM725.532 329.416v28.286c-4.206 5.539-10.789 9.083-18.201 9.1h-0.003c-11.911 0-20.182-9.425-20.182-23.324 0-13.736 8.271-23.166 20.182-23.166 7.415 0.017 13.998 3.561 18.163 9.043l0.041 0.056zM765.412 404.689c0 6.941 5.627 12.567 12.567 12.567s12.567-5.627 12.567-12.567c0-6.941-5.627-12.567-12.567-12.567v0c-6.916 0.060-12.507 5.651-12.567 12.562v0.006zM767.562 303.597v79.909h21.011v-79.909zM804.291 343.636c0 0.075-0.001 0.163-0.001 0.251 0 23.347 18.926 42.273 42.273 42.273s42.273-18.926 42.273-42.273c0-23.347-18.926-42.273-42.273-42.273-0.029 0-0.058 0-0.088 0h0.004c-0.515-0.023-1.118-0.037-1.724-0.037-22.365 0-40.495 18.13-40.495 40.495 0 0.55 0.011 1.097 0.033 1.642l-0.002-0.078zM866.998 343.636c0 12.418-7.447 23.166-20.517 23.166s-20.345-10.747-20.345-23.166c0-12.567 7.275-23.324 20.345-23.324s20.517 10.757 20.517 23.324zM429.535 273.189h521.97v-28.672h-521.97v28.672zM990.059 273.189h28.672v-28.672h-28.672v28.672zM84.010 623.016v-84.010h209.147v-146.651c-0.003-34.515-27.982-62.494-62.496-62.497h-146.651v-84.010h144.533c82.083 0 148.624 66.541 148.624 148.624v0 228.538zM0 538.931h84.010v-209.073h-84.010v209.073z" />
<glyph unicode="&#xe91c;" glyph-name="crepixafooter" data-tags="crepixafooter" d="M434.98 579.9c-0.015 0.408-0.023 0.888-0.023 1.37 0 22.395 18.154 40.549 40.549 40.549 0.649 0 1.294-0.015 1.936-0.045l-0.091 0.003c0.653 0.041 1.416 0.064 2.184 0.064 11.941 0 22.566-5.631 29.366-14.382l0.063-0.084-13.735-12.907c-3.525 5.23-9.426 8.624-16.12 8.624-0.269 0-0.536-0.005-0.802-0.016l0.038 0.001c-12.158-0.874-21.691-10.953-21.691-23.257s9.533-22.383 21.616-23.253l0.075-0.004c0.102-0.002 0.223-0.003 0.344-0.003 6.817 0 12.844 3.379 16.498 8.554l0.042 0.063 13.735-12.746c-6.792-8.93-17.423-14.635-29.388-14.635-0.783 0-1.56 0.024-2.331 0.073l0.105-0.005c-0.539-0.026-1.172-0.040-1.807-0.040-22.418 0-40.591 18.173-40.591 40.591 0 0.523 0.010 1.044 0.029 1.562l-0.002-0.075zM522.704 539.85v79.937h21.016v-10.925c6.068 7.567 15.166 12.488 25.425 12.911l0.068 0.002v-20.522c-1.578 0.318-3.393 0.499-5.25 0.499-0.191 0-0.382-0.002-0.572-0.006h0.028c-7.849-0.125-14.861-3.606-19.681-9.068l-0.025-0.029v-52.801zM577.161 579.9c-0.011 0.357-0.018 0.776-0.018 1.197 0 22.47 18.216 40.686 40.686 40.686 0.249 0 0.498-0.002 0.745-0.007l-0.037 0.001c23.814 0 40.055-17.86 40.055-44.056v-4.632h-59.41c1.492-10.566 10.474-18.604 21.334-18.604 0.588 0 1.171 0.024 1.747 0.070l-0.076-0.005c8.163 0.126 15.607 3.107 21.401 7.984l-0.052-0.042 9.27-13.568c-8.485-6.922-19.434-11.116-31.363-11.116-0.553 0-1.103 0.009-1.652 0.027l0.080-0.002c-0.675-0.040-1.465-0.063-2.26-0.063-22.359 0-40.484 18.125-40.484 40.484 0 0.579 0.012 1.155 0.036 1.729l-0.003-0.082zM618.538 605.065c-0.161 0.005-0.35 0.008-0.54 0.008-10.085 0-18.355-7.771-19.149-17.651l-0.004-0.068h39.388c-0.425 9.892-8.548 17.75-18.505 17.75-0.418 0-0.833-0.014-1.245-0.041l0.056 0.003zM721.825 539.85v8.269c-6.038-6.341-14.544-10.285-23.972-10.285-0.474 0-0.946 0.010-1.416 0.030l0.067-0.002c-0.35-0.016-0.761-0.026-1.173-0.026-14.665 0-26.562 11.852-26.636 26.5v0.007c0 18.7 15.062 25.826 27.809 25.826 0.564 0.034 1.222 0.054 1.886 0.054 9.173 0 17.469-3.758 23.43-9.819l0.004-0.004v10.758c0 8.109-6.948 13.407-17.539 13.407-9.070-0.009-17.299-3.602-23.348-9.44l0.010 0.010-7.942 14.062c9.099 7.823 21.026 12.587 34.065 12.587 0.3 0 0.599-0.003 0.897-0.008l-0.045 0.001c18.212 0 34.923-7.281 34.923-30.291v-51.635zM721.825 559.044v9.936c-3.866 4.295-9.444 6.984-15.65 6.984-0.434 0-0.865-0.013-1.292-0.039l0.059 0.003c-8.275 0-15.050-4.298-15.050-12.080 0-7.448 6.781-11.752 15.050-11.752 0.369-0.023 0.8-0.036 1.234-0.036 6.206 0 11.785 2.689 15.634 6.965l0.017 0.019zM767.845 559.729v41.674h-13.241v18.372h13.241v21.849h21.188v-21.849h16.223v-18.372h-16.223v-36.078c0-4.965 2.643-8.775 7.287-8.775 0.102-0.003 0.222-0.005 0.343-0.005 2.619 0 5.033 0.875 6.967 2.348l-0.028-0.021 4.471-15.89c-4.286-3.25-9.709-5.206-15.589-5.206-0.688 0-1.37 0.027-2.045 0.079l0.089-0.006c-14.741 0.012-22.683 7.626-22.683 21.879zM817.503 640.976c0 6.944 5.629 12.574 12.574 12.574s12.574-5.629 12.574-12.574c0-6.944-5.629-12.574-12.574-12.574v0c-6.921 0.057-12.517 5.652-12.574 12.568v0.005zM819.652 539.85v79.937h21.016v-79.937zM882.218 539.85l-32.107 79.937h22.504l20.837-55.606 20.837 55.606h22.683l-32.119-79.937zM941.306 579.9c-0.011 0.357-0.018 0.776-0.018 1.197 0 22.47 18.216 40.686 40.686 40.686 0.251 0 0.502-0.002 0.752-0.007l-0.037 0.001c23.814 0 40.055-17.86 40.055-44.056v-4.632h-59.416c1.495-10.566 10.478-18.604 21.339-18.604 0.586 0 1.167 0.023 1.741 0.069l-0.076-0.005c8.165 0.127 15.611 3.107 21.407 7.984l-0.052-0.042 9.27-13.568c-8.489-6.922-19.441-11.116-31.373-11.116-0.551 0-1.1 0.009-1.647 0.027l0.080-0.002c-0.675-0.040-1.465-0.063-2.26-0.063-22.359 0-40.484 18.125-40.484 40.484 0 0.579 0.012 1.155 0.036 1.729l-0.003-0.082zM982.689 605.065c-0.164 0.005-0.357 0.008-0.551 0.008-10.083 0-18.35-7.772-19.139-17.652l-0.004-0.067h39.382c-0.422 9.891-8.543 17.75-18.5 17.75-0.418 0-0.833-0.014-1.245-0.041l0.056 0.003zM461.121 432.217v-40.71h-21.016v110.396h21.016v-10.121c5.702 7.38 14.554 12.086 24.506 12.086 0.056 0 0.112 0 0.168 0h-0.009c20.528 0 35.417-15.229 35.417-41.883s-14.884-42.038-35.417-42.038c-0.054 0-0.118-0.001-0.183-0.001-9.984 0-18.85 4.788-24.426 12.193l-0.056 0.078zM499.361 461.985c0 13.741-8.109 23.177-20.2 23.177-7.329-0.18-13.804-3.681-18-9.051l-0.039-0.052v-28.303c4.28-5.367 10.728-8.848 17.997-9.108l0.042-0.001c12.097 0.024 20.206 9.46 20.206 23.361zM534.463 523.085c0 6.944 5.629 12.574 12.574 12.574s12.574-5.629 12.574-12.574c0-6.944-5.629-12.574-12.574-12.574v0c-6.921 0.057-12.517 5.652-12.574 12.568v0.005zM536.612 421.959v79.943h21.016v-79.943zM627.974 421.959l-18.206 26.975-18.372-26.975h-23.344l28.309 41.043-26.654 38.9h23.504l16.551-24.659 16.384 24.659h23.498l-26.791-38.9 28.642-41.043zM651.151 462.009c-0.011 0.357-0.018 0.776-0.018 1.197 0 22.474 18.218 40.692 40.692 40.692 0.247 0 0.493-0.002 0.739-0.007l-0.037 0.001c23.814 0 40.061-17.86 40.061-44.056v-4.632h-59.416c1.495-10.566 10.478-18.604 21.339-18.604 0.586 0 1.167 0.023 1.741 0.069l-0.076-0.005c8.165 0.127 15.611 3.107 21.407 7.984l-0.052-0.042 9.264-13.568c-8.487-6.922-19.438-11.116-31.369-11.116-0.549 0-1.095 0.009-1.64 0.026l0.079-0.002c-0.677-0.040-1.469-0.063-2.266-0.063-22.359 0-40.484 18.125-40.484 40.484 0 0.577 0.012 1.152 0.036 1.723l-0.003-0.082zM692.528 487.174c-0.159 0.005-0.347 0.007-0.535 0.007-10.086 0-18.358-7.77-19.155-17.651l-0.004-0.068h39.394c-0.428 9.892-8.552 17.75-18.511 17.75-0.418 0-0.834-0.014-1.245-0.041l0.056 0.003zM747.818 421.959v110.384h21.022v-110.401zM433.14 314.493l9.097 14.729c7.43-6.376 17.023-10.424 27.545-10.921l0.103-0.004c9.097 0 13.407 3.644 13.407 8.609 0 13.241-47.503 2.483-47.503 33.935 0 13.407 11.758 25.159 32.744 25.159 0.211 0.003 0.459 0.005 0.709 0.005 11.967 0 22.972-4.117 31.678-11.011l-0.106 0.081-8.442-14.401c-6.036 5.744-14.222 9.278-23.233 9.278-0.154 0-0.308-0.001-0.461-0.003h0.023c-7.615 0-12.58-3.477-12.58-7.948 0-11.907 47.336-1.988 47.336-34.262 0-14.568-12.413-25.66-34.596-25.66-0.394-0.010-0.859-0.016-1.325-0.016-13.12 0-25.144 4.696-34.481 12.499l0.085-0.069zM523.199 323.923v41.722h-13.241v18.372h13.241v21.849h21.188v-21.849h16.223v-18.372h-16.223v-36.084c0-4.965 2.649-8.769 7.287-8.769 0.104-0.003 0.227-0.005 0.35-0.005 2.617 0 5.031 0.872 6.965 2.342l-0.028-0.021 4.465-15.89c-4.289-3.249-9.714-5.205-15.596-5.205-0.684 0-1.361 0.026-2.032 0.078l0.089-0.006c-14.741-0.012-22.689 7.597-22.689 21.837zM628.974 304.063v10.121c-6.864-7.444-16.665-12.090-27.551-12.090-0.208 0-0.416 0.002-0.623 0.005h0.031c-17.545 0-25.82 9.603-25.82 25.165v56.767h21.016v-48.497c-0.104-0.613-0.163-1.319-0.163-2.039 0-7.099 5.755-12.854 12.854-12.854 0.722 0 1.43 0.059 2.119 0.174l-0.075-0.010c7.393 0.126 13.94 3.64 18.173 9.051l0.039 0.052v54.123h21.016v-79.943zM725.802 304.063v10.264c-5.717-7.467-14.629-12.238-24.657-12.252h-0.002c-20.194 0-35.423 15.235-35.423 41.877 0 26.154 15.062 42.044 35.423 42.044 0.026 0 0.056 0 0.086 0 10.007 0 18.899-4.778 24.518-12.176l0.055-0.076v40.722h21.188v-110.401zM725.802 329.883v28.303c-4.205 5.541-10.79 9.086-18.203 9.103h-0.003c-11.907 0-20.194-9.436-20.194-23.338 0-13.735 8.275-23.171 20.194-23.171 7.416 0.016 14 3.562 18.165 9.046l0.041 0.057zM765.696 405.188c0 0.002 0 0.004 0 0.006 0 6.948 5.632 12.58 12.58 12.58s12.58-5.632 12.58-12.58c0-6.948-5.632-12.58-12.58-12.58v0c-6.923 0.057-12.52 5.652-12.58 12.568v0.006zM767.845 304.063v79.943h21.022v-79.943zM804.59 344.118c0 0.067-0.001 0.147-0.001 0.226 0 23.345 18.925 42.27 42.27 42.27s42.27-18.925 42.27-42.27c0-23.345-18.925-42.27-42.27-42.27-0.023 0-0.046 0-0.068 0h0.004c-0.523-0.024-1.136-0.038-1.752-0.038-22.359 0-40.484 18.125-40.484 40.484 0 0.562 0.011 1.121 0.034 1.677l-0.003-0.080zM867.322 344.118c0 12.419-7.448 23.171-20.528 23.171s-20.355-10.752-20.355-23.171c0-12.58 7.281-23.338 20.355-23.338s20.528 10.758 20.528 23.338zM429.699 273.64h522.169v-28.684h-522.169v28.684zM990.44 273.64h28.684v-28.684h-28.684v28.684zM84.039 623.598v-84.039h209.235v-146.706c0-34.524-27.987-62.512-62.512-62.512v0h-146.712v-84.039h144.586c0.002 0 0.004 0 0.006 0 82.113 0 148.679 66.564 148.682 148.676v0 228.614zM0 539.481h84.039v-209.152h-84.039v209.152z" />
<glyph unicode="&#xe91d;" glyph-name="crepixaw" data-tags="crepixaw" d="M53.694 553.159v-53.694h133.668v-93.726c0-22.059-17.883-39.942-39.942-39.942h-93.726v-53.688h92.377c52.456 0.003 94.979 42.528 94.979 94.985v146.065zM0 499.417h53.694v-133.62h-53.694v133.62z" />
<glyph unicode="&#xe91e;" glyph-name="cridetcard" data-tags="cridetcard" d="M904.415 804.174h-793.333c-61.472 0-111.304-49.833-111.304-111.304v0-475.937c0.152-61.357 49.926-111.037 111.304-111.037 0 0 0 0 0 0h793.333c61.263 0.152 110.886 49.774 111.037 111.023v475.952c0 0 0 0 0 0 0 61.378-49.681 111.152-111.023 111.304h-0.015zM111.082 740.73h793.333c26.281-0.051 47.568-21.354 47.594-47.636v-63.445h-888.52v63.443c0.025 26.284 21.313 47.588 47.589 47.638h0.005zM904.415 169.517h-793.333c-26.275 0.025-47.568 21.319-47.594 47.591v349.052h888.52v-349.050c-0.051-26.265-21.329-47.543-47.589-47.594h-0.005zM222.163 264.793h-31.744c-17.532 0-31.744 14.212-31.744 31.744v0 31.789c0 17.532 14.212 31.744 31.744 31.744v0h31.744c17.513-0.025 31.699-14.228 31.699-31.744 0 0 0 0 0 0v0-31.789c0 0 0 0 0 0 0-17.516-14.187-31.719-31.697-31.744h-0.002z" />
<glyph unicode="&#xe91f;" glyph-name="downarrow" data-tags="downarrow" d="M901.837 755.2l-400.179-400.128-394.854 394.854-106.752-106.752 501.76-501.76 506.88 506.88z" />
<glyph unicode="&#xe920;" glyph-name="dribbel" data-tags="dribbel" d="M955.369 704.988c-45.522 77.788-108.545 140.81-183.93 185.030l-2.403 1.303c-73.757 43.171-162.408 68.663-257.012 68.663s-183.255-25.492-259.457-69.982l2.445 1.319c-77.799-45.508-140.825-108.534-185.031-183.931l-1.302-2.402c-43.185-73.753-68.686-162.405-68.686-257.012s25.501-183.258 70.003-259.455l-1.318 2.442c45.512-77.781 108.537-140.791 183.929-184.982l2.403-1.302c73.757-43.171 162.408-68.663 257.012-68.663s183.255 25.492 259.457 69.982l-2.445-1.319c77.795 45.493 140.821 108.503 185.031 183.883l1.302 2.401c43.157 73.761 68.641 162.411 68.641 257.012s-25.483 183.252-69.96 259.46l1.319-2.448zM512.024 885.467c1.618 0.022 3.53 0.035 5.444 0.035 109.183 0 208.666-41.529 283.516-109.652l-0.339 0.304-8.292-11.658c-8.034-9.808-16.216-18.624-24.907-26.913l-0.116-0.11c-13.415-13.301-27.736-25.751-42.838-37.224l-1.062-0.774c-18.437-13.672-39.46-27.251-61.338-39.482l-3-1.54c-24.219-13.978-52.776-27.548-82.428-38.909l-4.251-1.431c-52.586 97.394-106.927 180.69-167.281 259.119l3.289-4.448c31.002 7.951 66.616 12.569 103.29 12.682h0.071zM169.358 719.621c41.417 52.367 93.643 94.318 153.487 122.876l2.603 1.118c54.406-72.446 108.228-154.773 156.71-240.518l5.965-11.47c-121.097-33.583-260.199-53.038-403.793-53.363h-0.187c14.824 69.673 44.622 130.773 85.965 182.196l-0.652-0.838zM103.995 290.373c-18.525 46.222-29.27 99.804-29.27 155.895 0 0.618 0.001 1.235 0.004 1.852v-0.096c-0.008 0.503-0.013 1.095-0.013 1.689 0 4.337 0.253 8.616 0.745 12.821l-0.049-0.511c3.889-0.035 8.486-0.055 13.087-0.055 155.247 0 305.194 22.688 446.708 64.929l-11.036-2.828q21.316-41.413 35.364-74.045c-2.426-1.122-5.316-2.156-8.306-2.94l-0.376-0.084-8.731-2.293-24.389-8.683c-26.025-10.347-47.852-21.087-68.723-33.286l2.384 1.288q-40.974-22.682-87.020-53.997c-35.534-25.101-66.625-52.368-94.624-82.545l-0.347-0.378c-31.039-32.402-58.326-68.809-80.907-108.257l-1.431-2.713c-34.38 37.984-62.4 82.516-81.882 131.377l-1.041 2.958zM512.024 10.728c-0.998-0.008-2.178-0.013-3.359-0.013-105.108 0-201.393 37.778-276.017 100.497l0.657-0.538 9.756-7.317c18.13 38.063 41.135 70.659 68.729 98.729l-0.050-0.051c26.203 27.929 54.784 53.012 85.623 75.151l1.739 1.187c25.802 18.014 55.685 36.16 86.697 52.448l4.665 2.232q49.315 25.706 67.314 32.633c11.999 4.878 21.56 8.39 28.682 11.024l1.317 0.683h1.317c37.931-94.256 70.261-205.671 91.606-320.94l1.706-11.093c-50.325-21.895-108.949-34.633-170.548-34.633-0.062 0-0.124 0-0.186 0h0.010zM880.056 211.694c-32.715-50.495-73.854-92.582-121.853-125.364l-1.507-0.972c-22.080 119.853-51.624 224.796-89.589 325.612l4.276-12.944c27.8 4.355 59.861 6.842 92.503 6.842 64.229 0 126.208-9.631 184.572-27.529l-4.454 1.175c-10.193-63.039-32.662-119.358-64.958-168.659l1.010 1.643zM942.687 454.073c-4.439 0.878-10 1.854-16.682 2.975l-24.389 4c-9.756 1.561-20.194 2.975-31.998 4.292s-24.389 2.585-37.706 3.707-27.511 2-42.632 2.683-30.438 0.976-45.998 0.976-31.901-0.488-48.778-1.366-33.657-2.439-49.705-4.878c-1.641 3.022-3.284 6.658-4.679 10.414l-0.198 0.61c-2 4.878-3.414 9.024-4.292 11.707q-12.731 27.95-29.267 63.412c58.958 24.424 109.788 53.386 156.39 87.75l-2.007-1.413c17.447 13.313 32.869 26.524 47.52 40.535l-0.206-0.195c10.238 9.405 19.714 19.082 28.66 29.236l0.363 0.421q6.683 8.341 12.682 16.341l0.683 0.634c61.61-73.424 99.104-168.892 99.312-273.112v-0.045z" />
<glyph unicode="&#xe921;" glyph-name="edit" data-tags="edit" d="M278.73 169.256h233.256c12.592 0.029 24.002 5.070 32.345 13.233l-0.008-0.008 425.127 424.518c33.454 34.162 54.099 80.981 54.099 132.622s-20.645 98.46-54.131 132.655l0.032-0.033-33.206 33.177c-34.557 32.539-81.243 52.534-132.599 52.534-51.49 0-98.286-20.1-132.969-52.881l0.092 0.086-424.286-424.866c-8.119-8.145-13.14-19.384-13.14-31.795 0-0.149 0.001-0.299 0.002-0.448v0.023-233.372c0.049-25.058 20.333-45.362 45.379-45.445h0.008zM324.174 429.396l411.99 411.961c17.548 16.599 41.293 26.804 67.422 26.804 25.98 0 49.604-10.089 67.167-26.564l-0.053 0.049 32.916-32.916c17.092-17.315 27.649-41.117 27.649-67.384s-10.557-50.069-27.659-67.394l-412.009-412.009h-167.452zM978.584 435.138c-25.085-0.033-45.412-20.36-45.445-45.442v-291.58c-0.033-39.292-31.877-71.136-71.165-71.169h-699.8c-39.298 0.033-71.148 31.873-71.198 71.164v699.802c0.049 39.296 31.9 71.136 71.195 71.169h291.493c25.114 0 45.474 20.359 45.474 45.474s-20.359 45.474-45.474 45.474h-291.548c-89.468-0.165-161.951-72.648-162.116-162.1v-699.813c0.181-89.456 72.658-161.922 162.1-162.087h699.813c89.445 0.181 161.906 72.642 162.087 162.070v291.595c-0.049 25.068-20.35 45.379-45.409 45.445h-0.006z" />
<glyph unicode="&#xe922;" horiz-adv-x="1026" d="M1025.754 602.77v-520.783c0.002-0.295 0.003-0.643 0.003-0.992 0-80.079-64.917-144.997-144.997-144.997-0.24 0-0.48 0.001-0.719 0.002h-734.366c-0.203-0.001-0.442-0.002-0.682-0.002-80.079 0-144.997 64.917-144.997 144.997 0 0.349 0.001 0.697 0.004 1.045v-0.053 730.641c-0.003 0.353-0.005 0.771-0.005 1.189 0 80.553 65.165 145.885 145.655 146.156h539.28l36.772-243.575z" />
<glyph unicode="&#xe923;" horiz-adv-x="1026" d="M684.958 959.632l339.806-356.834h-226.292c-0.025 0-0.055 0-0.085 0-62.692 0-113.514 50.822-113.514 113.514 0 0.030 0 0.060 0 0.090v-0.005z" />
<glyph unicode="&#xe924;" horiz-adv-x="1026" d="M117.417 238.892h67.605v-65.285h-67.605v65.285z" />
<glyph unicode="&#xe925;" horiz-adv-x="1026" d="M419.489 268.31h-147.797c-0.026-0.596-0.040-1.295-0.040-1.998 0-12.504 4.647-23.922 12.307-32.623l-0.047 0.055c7.002-6.521 16.426-10.523 26.783-10.523 0.529 0 1.055 0.010 1.578 0.031l-0.075-0.002c0.439-0.018 0.955-0.028 1.473-0.028 8.487 0 16.335 2.736 22.71 7.375l-0.111-0.077c6.098 4.561 10.567 11.005 12.562 18.46l0.054 0.237h69.047c-2.881-15.469-9.329-29.089-18.466-40.456l0.137 0.176c-9.54-11.836-21.553-21.285-35.29-27.639l-0.605-0.251c-14.371-6.398-31.139-10.124-48.777-10.124-20.167 0-39.197 4.871-55.977 13.501l0.688-0.322c-16.17 8.861-29.128 21.819-37.743 37.501l-0.245 0.488c-8.665 16.997-13.742 37.069-13.742 58.328 0 21.102 5.003 41.036 13.887 58.68l-0.342-0.75c8.848 16.154 21.847 29.071 37.582 37.576l0.491 0.243c16.306 8.306 35.561 13.172 55.952 13.172 20.235 0 39.351-4.792 56.274-13.303l-0.721 0.329c15.773-8.471 28.456-20.909 36.987-36.004l0.238-0.458c8.311-14.995 13.203-32.881 13.203-51.91 0-0.755-0.008-1.507-0.023-2.258l0.002 0.112c-0.059-6.253-0.747-12.31-2.002-18.157l0.106 0.592zM344.134 327.287c-7.299 6.524-16.985 10.512-27.603 10.512-0.429 0-0.857-0.007-1.283-0.019l0.062 0.002c-0.438 0.016-0.952 0.025-1.468 0.025-10.881 0-20.814-4.064-28.362-10.756l0.045 0.039c-8.112-7.99-13.188-19.043-13.351-31.283v-0.031h83.247c0.114 1.122 0.179 2.425 0.179 3.743 0 10.842-4.392 20.659-11.494 27.768v0z" />
<glyph unicode="&#xe926;" horiz-adv-x="1026" d="M635.428 376.195c14.23-9.304 25.457-22.12 32.607-37.242l0.234-0.549c7.603-17.134 12.030-37.122 12.030-58.143s-4.427-41.009-12.399-59.081l0.369 0.938c-7.342-15.756-18.578-28.645-32.499-37.778l-0.342-0.21c-13.011-8.277-28.864-13.191-45.865-13.191-0.453 0-0.905 0.003-1.357 0.010l0.068-0.001c-0.651-0.020-1.418-0.031-2.187-0.031-14.713 0-28.463 4.125-40.156 11.283l0.337-0.192c-11.368 7.168-20.174 17.487-25.3 29.729l-0.157 0.424v-140.131h-65.285v314.659h65.285v-38.555c5.279 12.678 14.086 23.007 25.194 30.026l0.264 0.156c11.363 6.965 25.121 11.090 39.841 11.090 0.761 0 1.519-0.011 2.275-0.033l-0.111 0.003c0.398 0.007 0.867 0.010 1.336 0.010 16.985 0 32.822-4.915 46.167-13.4l-0.35 0.208zM533.597 318.151c-8.207-10.309-13.167-23.52-13.167-37.89s4.961-27.581 13.263-38.014l-0.096 0.125c8.683-8.742 20.71-14.154 34.001-14.154 13.094 0 24.961 5.252 33.61 13.764l-0.006-0.006c7.981 10.492 12.786 23.779 12.786 38.187s-4.805 27.694-12.9 38.343l0.114-0.156c-8.042 8.497-19.399 13.785-31.991 13.785-0.637 0-1.271-0.014-1.902-0.040l0.090 0.003c-0.43 0.015-0.935 0.023-1.443 0.023-12.742 0-24.232-5.359-32.34-13.947l-0.020-0.022z" />
<glyph unicode="&#xe927;" horiz-adv-x="1026" d="M856.544 369.151c15.798-13.299 26.792-31.858 30.282-52.95l0.070-0.511h-61.099c-1.507 8.293-5.847 15.379-11.961 20.375l-0.061 0.048c-6.064 4.658-13.761 7.465-22.115 7.465-0.479 0-0.957-0.009-1.432-0.028l0.068 0.002c-0.534 0.039-1.156 0.062-1.783 0.062-5.639 0-10.854-1.815-15.093-4.894l0.074 0.051c-3.494-3.070-5.688-7.547-5.688-12.537 0-0.356 0.011-0.71 0.033-1.060l-0.002 0.048c0.019-6.824 4.335-12.635 10.384-14.871l0.11-0.036c9.421-4.064 20.489-7.497 31.978-9.755l1.061-0.174c15.951-3.573 29.364-7.582 42.389-12.391l-2.279 0.737c10.837-4.209 19.949-10.811 27.017-19.192l0.082-0.099c7.185-9.001 11.529-20.546 11.529-33.104 0-0.982-0.027-1.957-0.079-2.926l0.006 0.135c0.005-0.273 0.008-0.595 0.008-0.918 0-11.814-3.72-22.759-10.052-31.728l0.116 0.173c-7.245-9.817-16.95-17.429-28.216-21.991l-0.438-0.157c-12.327-5.084-26.64-8.037-41.642-8.037-0.934 0-1.865 0.011-2.793 0.034l0.138-0.003c-1.713-0.092-3.718-0.144-5.735-0.144-23.634 0-45.59 7.187-63.8 19.495l0.403-0.257c-17.108 12.897-28.828 32.153-31.639 54.193l-0.042 0.4h62.994c0.604-8.664 5.024-16.185 11.573-20.961l0.081-0.056c6.817-4.581 15.211-7.312 24.242-7.312 0.676 0 1.349 0.015 2.018 0.046l-0.095-0.003c0.516-0.039 1.117-0.061 1.723-0.061 5.718 0 10.976 1.973 15.129 5.276l-0.050-0.038c3.491 3.188 5.672 7.759 5.672 12.839 0 0.25-0.005 0.498-0.016 0.745l0.001-0.035c0.007 0.176 0.011 0.383 0.011 0.591 0 6.923-4.31 12.839-10.394 15.212l-0.111 0.038c-9.648 4.002-21.089 7.498-32.924 9.914l-1.246 0.213c-15.155 2.996-28.215 6.689-40.836 11.294l1.886-0.601c-10.525 4.017-19.387 10.35-26.29 18.412l-0.073 0.087c-6.944 8.71-11.142 19.877-11.142 32.025 0 1.023 0.030 2.040 0.089 3.048l-0.006-0.139c-0.014 0.466-0.021 1.015-0.021 1.565 0 18.133 8.463 34.289 21.655 44.734l0.119 0.091c15.395 11.22 34.686 17.95 55.55 17.95 2.092 0 4.167-0.068 6.225-0.201l-0.28 0.015c1.488 0.081 3.231 0.127 4.984 0.127 22.592 0 43.396-7.657 59.958-20.518l-0.222 0.166z" />
<glyph unicode="&#xe928;" glyph-name="facebook" data-tags="facebook" d="M395.695 725.45v-130.803h-153.169v-177.368h153.169v-454.602c30.936-2.21 61.979-3.773 93.453-3.773 30.235 0 60.039 1.455 89.789 3.503v454.872h152.738l22.905 177.368h-175.643v113.179c0 51.362 14.282 86.232 87.902 86.232h93.939v158.666c-39.765 4.466-85.863 7.014-132.556 7.014-1.525 0-3.049-0.003-4.572-0.008l0.236 0.001c-4.625 0.356-10.016 0.559-15.454 0.559-118.079 0-213.8-95.722-213.8-213.8 0-7.505 0.387-14.919 1.141-22.224l-0.077 0.915zM-257.994 455.653l757.662 763.423 761.587-755.84-757.662-763.423-761.587 755.84z" />
<glyph unicode="&#xe929;" glyph-name="filter" data-tags="filter" d="M1001.658 753.385h-792.576v50.641h792.576zM1001.658 437.527h-416.954v50.641h416.954zM417.559 437.527h-377.903v50.641h377.903zM111.476 890.182c61.567 0 111.476-49.91 111.476-111.476s-49.91-111.476-111.476-111.476c-61.567 0-111.476 49.91-111.476 111.476v0c0.132 61.513 49.963 111.344 111.464 111.476h0.013zM111.476 717.964c33.598 0 60.835 27.237 60.835 60.835s-27.237 60.835-60.835 60.835c-33.598 0-60.835-27.237-60.835-60.835 0-0.033 0-0.065 0-0.098v0.005c0.053-33.577 27.258-60.782 60.83-60.835h0.005zM832.233 97.373h-792.576v50.641h792.576zM897.722 234.17c61.567 0 111.476-49.91 111.476-111.476s-49.91-111.476-111.476-111.476c-61.567 0-111.476 49.91-111.476 111.476v0c0.132 61.513 49.963 111.344 111.464 111.476h0.013zM897.722 61.952c33.598 0 60.835 27.237 60.835 60.835s-27.237 60.835-60.835 60.835c-33.598 0-60.835-27.237-60.835-60.835 0-0.033 0-0.065 0-0.098v0.005c0.053-33.577 27.258-60.782 60.83-60.835h0.005zM506.321 576.838c61.567 0 111.476-49.91 111.476-111.476s-49.91-111.476-111.476-111.476c-61.567 0-111.476 49.91-111.476 111.476v0c0.132 61.513 49.963 111.344 111.464 111.476h0.013zM506.321 404.62c33.598 0 60.835 27.237 60.835 60.835s-27.237 60.835-60.835 60.835c-33.598 0-60.835-27.237-60.835-60.835 0-0.033 0-0.065 0-0.098v0.005c0.053-33.577 27.258-60.782 60.83-60.835h0.005z" />
<glyph unicode="&#xe92a;" glyph-name="google" data-tags="google" d="M226.943 341.196l-35.619-133.079-130.27-2.625c-38.432 70.198-61.037 153.794-61.037 242.669 0 86.005 21.168 167.065 58.577 238.256l-1.346-2.812 115.991-21.261 50.843-115.283c-10.434-29.487-16.462-63.493-16.462-98.906 0-38.372 7.078-75.091 20-108.923l-0.703 2.094zM1015.076 543.649c5.737-28.764 9.020-61.833 9.020-95.668 0-161.010-74.343-304.655-190.576-398.483l-0.975-0.762-146.072 7.455-20.684 129.089c59.927 35.574 105.814 89.4 130.537 153.723l0.705 2.087h-273.796v202.558zM832.518 48.737v0c-86.928-70.226-198.785-112.733-320.57-112.733-193.917 0-362.662 107.771-449.609 266.686l-1.338 2.67 165.889 135.809c44.551-116.399 155.342-197.549 285.086-197.549 56.661 0 109.706 15.477 155.141 42.433l-1.407-0.773zM838.818 842.119l-165.863-135.809c-45.7 28.872-101.316 46.006-160.933 46.006-132.682 0-245.543-84.867-287.258-203.28l-0.655-2.133-166.808 136.491c87.117 165.558 257.965 276.518 454.73 276.518 124.63 0 238.862-44.516 327.665-118.515l-0.824 0.668z" />
<glyph unicode="&#xe92b;" d="M1023.994 448.003c0-282.768-229.229-511.997-511.997-511.997s-511.997 229.229-511.997 511.997c0 282.768 229.229 511.997 511.997 511.997s511.997-229.229 511.997-511.997z" />
<glyph unicode="&#xe92c;" d="M258.956 456.63l148.038-167.194 358.050 317.127z" />
<glyph unicode="&#xe92d;" d="M403.334 229.201l-176.325 199.141 63.883 56.575 119.75-135.247 326.103 288.834 56.575-63.877z" />
<glyph unicode="&#xe92e;" glyph-name="Group-2753" data-tags="Group 2753" d="M810.457 585.61c-65.003 70.283-121.978 149.538-168.51 235.285l-3.050 6.143c-15.445 27.742-29.54 60.111-40.488 93.897l-1.102 3.935-9.295 35.131-33.241-14.809c-63.725-32.491-114.349-82.938-146.191-144.653l-0.871-1.857c-19.502-41.198-30.889-89.505-30.889-140.471 0-2.733 0.033-5.459 0.098-8.176l-0.008 0.403c0-0.047 0-0.102 0-0.157 0-26.363-21.371-47.734-47.734-47.734-13.162 0-25.079 5.327-33.714 13.942l-61.912 61.912-21.268-29.381c-2.206-3.072-54.272-74.831-63.724-89.167-43.733-65.486-69.79-146.014-69.79-232.627 0-233.394 189.203-422.597 422.597-422.597s422.597 189.203 422.597 422.597c0 0.007 0 0.015 0 0.022v-0.001c-5.755 101.030-48.012 191.208-113.662 258.442l0.077-0.079zM646.302 89.364c-1.351-0.065-2.934-0.101-4.526-0.101-55.814 0-101.061 45.247-101.061 101.061 0 3.281 0.156 6.525 0.462 9.725l-0.031-0.408c-0.254 2.693-0.399 5.823-0.399 8.987 0 55.988 45.388 101.376 101.376 101.376 1.47 0 2.933-0.031 4.388-0.093l-0.208 0.007c1.224 0.053 2.659 0.083 4.101 0.083 55.988 0 101.376-45.388 101.376-101.376 0-3.163-0.145-6.292-0.428-9.381l0.029 0.397c0.274-2.792 0.43-6.034 0.43-9.314 0-55.814-45.247-101.061-101.061-101.061-1.564 0-3.12 0.036-4.667 0.106l0.22-0.008zM588.721 490.614h95.468l-270.1-395.579h-95.547zM251.353 386.087c-0.254 2.693-0.399 5.823-0.399 8.987 0 55.988 45.388 101.376 101.376 101.376 1.47 0 2.933-0.031 4.388-0.093l-0.208 0.007c1.224 0.053 2.659 0.083 4.101 0.083 55.988 0 101.376-45.388 101.376-101.376 0-3.163-0.145-6.292-0.428-9.381l0.029 0.397c0.274-2.792 0.43-6.034 0.43-9.314 0-55.814-45.247-101.061-101.061-101.061-1.564 0-3.12 0.036-4.667 0.106l0.22-0.008c-1.351-0.065-2.934-0.101-4.526-0.101-55.814 0-101.061 45.247-101.061 101.061 0 3.281 0.156 6.525 0.462 9.725l-0.031-0.408zM646.38 248.793c-12.446 0-24.891-11.264-24.891-49.152s12.446-49.152 24.891-49.152 24.891 11.264 24.891 49.152-12.446 49.152-24.891 49.152zM356.431 435.239c-12.446 0-24.891-11.343-24.891-49.152s12.446-49.152 24.891-49.152 24.891 11.343 24.891 49.152-12.446 49.152-24.891 49.152z" />
<glyph unicode="&#xe92f;" horiz-adv-x="1026" d="M1025.754 602.798v-520.783c0.002-0.295 0.003-0.643 0.003-0.992 0-80.079-64.917-144.997-144.997-144.997-0.24 0-0.48 0.001-0.719 0.002h-734.366c-0.203-0.001-0.442-0.002-0.682-0.002-80.079 0-144.997 64.917-144.997 144.997 0 0.349 0.001 0.697 0.004 1.045v-0.053 730.641c-0.003 0.353-0.005 0.771-0.005 1.189 0 80.553 65.165 145.885 145.655 146.156h539.28l36.772-243.575z" />
<glyph unicode="&#xe930;" horiz-adv-x="1026" d="M684.93 959.661l339.806-356.834h-226.292c-0.025 0-0.055 0-0.085 0-62.692 0-113.514 50.822-113.514 113.514 0 0.030 0 0.060 0 0.090v-0.005z" />
<glyph unicode="&#xe931;" horiz-adv-x="1026" d="M252.316 238.92h67.605v-65.285h-67.605v65.285z" />
<glyph unicode="&#xe932;" horiz-adv-x="1026" d="M358.475 471.294c7.712 6.083 17.57 9.757 28.287 9.757s20.575-3.674 28.384-9.831l-0.097 0.074c6.579-5.871 10.702-14.375 10.702-23.842 0-0.28-0.004-0.559-0.011-0.837l0.001 0.041c0.004-0.177 0.006-0.386 0.006-0.595 0-9.406-4.125-17.848-10.664-23.617l-0.034-0.030c-7.712-6.083-17.57-9.757-28.287-9.757s-20.575 3.674-28.384 9.831l0.097-0.074c-6.573 5.794-10.698 14.232-10.698 23.634 0 0.214 0.002 0.427 0.006 0.639l-0.001-0.032c-0.007 0.241-0.010 0.524-0.010 0.808 0 9.463 4.123 17.963 10.671 23.801l0.032 0.028zM419.206 173.635h-65.314v213.054h65.314z" />
<glyph unicode="&#xe933;" horiz-adv-x="1026" d="M587.228 378.316c11.362-7.187 20.165-17.512 25.3-29.757l0.158-0.425v108.054h65.285v-282.582h-65.172v38.611c-5.29-12.662-14.095-22.979-25.193-29.997l-0.265-0.156c-11.371-6.965-25.136-11.090-39.864-11.090-0.753 0-1.504 0.011-2.251 0.032l0.11-0.002c-0.383-0.006-0.836-0.010-1.289-0.010-17.001 0-32.854 4.914-46.216 13.4l0.352-0.209c-14.261 9.345-25.497 22.233-32.609 37.436l-0.232 0.552c-7.599 17.13-12.024 37.113-12.024 58.129s4.424 40.998 12.393 59.067l-0.369-0.938c7.385 15.67 18.612 28.486 32.497 37.579l0.344 0.211c13.003 8.277 28.848 13.192 45.841 13.192 0.462 0 0.922-0.004 1.382-0.011l-0.069 0.001c0.633 0.019 1.379 0.029 2.126 0.029 14.733 0 28.503-4.125 40.218-11.282l-0.339 0.193zM532.55 318.377c-7.981-10.492-12.786-23.779-12.786-38.187s4.805-27.694 12.9-38.343l-0.114 0.156c8.643-8.506 20.51-13.758 33.603-13.758 13.291 0 25.318 5.411 33.999 14.151l0.003 0.003c8.207 10.309 13.167 23.52 13.167 37.89s-4.961 27.581-13.263 38.014l0.096-0.125c-8.123 8.609-19.609 13.969-32.348 13.969-0.512 0-1.021-0.009-1.528-0.026l0.074 0.002c-0.544 0.024-1.182 0.038-1.823 0.038-12.588 0-23.942-5.288-31.96-13.764l-0.019-0.021z" />
<glyph unicode="&#xe934;" glyph-name="instagram" data-tags="instagram" d="M711.73 960h-399.663c-172.335-0.202-311.988-139.838-312.219-312.146v-399.786c0.231-172.31 139.897-311.923 312.205-312.067h399.677c172.301 0.173 311.938 139.775 312.168 312.045v399.786c-0.231 172.313-139.856 311.938-312.147 312.168h-0.022zM941.428 609.464v-322.978c-0.144-148.001-120.069-267.943-268.049-268.117h-322.944c-148.029 0.144-267.994 120.092-268.167 268.1v322.995c0.173 148.045 120.126 268.016 268.148 268.218h322.948c148.075-0.144 268.074-120.143 268.218-268.204v-0.014zM781.259 785.925c-33.635 0-60.901-27.266-60.901-60.901s27.266-60.901 60.901-60.901c33.635 0 60.901 27.266 60.901 60.901v0c0 33.635-27.266 60.901-60.901 60.901v0zM525.982 711.879c-146.604-0.058-265.427-118.917-265.427-265.528 0-146.647 118.881-265.528 265.528-265.528s265.528 118.881 265.528 265.528v0c-0.202 146.601-119.020 265.384-265.616 265.528h-0.014zM699.804 446.351c0-0.015 0-0.033 0-0.051 0-96.027-77.845-173.872-173.872-173.872s-173.872 77.845-173.872 173.872c0 96.027 77.845 173.872 173.872 173.872 0.018 0 0.036 0 0.053 0h-0.003c95.994-0.144 173.764-77.967 173.822-173.968v-0.006z" />
<glyph unicode="&#xe935;" glyph-name="invoice" data-tags="invoice" d="M649.544 729.518h-269.967c-18.127-0.652-32.575-15.504-32.575-33.731s14.448-33.079 32.516-33.729l0.059-0.002h269.967c0.35-0.013 0.762-0.020 1.176-0.020 18.64 0 33.751 15.111 33.751 33.751s-15.111 33.751-33.751 33.751c-0.413 0-0.825-0.007-1.235-0.022l0.059 0.002zM649.544 548.639h-269.967c-18.618 0-33.71-15.093-33.71-33.71s15.093-33.71 33.71-33.71v0h269.967c18.618 0 33.71 15.093 33.71 33.71s-15.093 33.71-33.71 33.71v0zM649.544 364.073h-269.967c-18.127-0.652-32.575-15.504-32.575-33.731s14.448-33.079 32.516-33.729l0.059-0.002h269.967c0.35-0.013 0.762-0.020 1.176-0.020 18.64 0 33.751 15.111 33.751 33.751s-15.111 33.751-33.751 33.751c-0.413 0-0.825-0.007-1.235-0.022l0.059 0.002zM885.76 825.037c-0.117 74.563-60.589 134.963-135.168 134.963 0 0 0 0 0 0h-472.433c0 0 0 0 0 0-74.579 0-135.051-60.4-135.168-134.952v-819.211c0-0.067-0.001-0.146-0.001-0.225 0-26.286 21.309-47.596 47.596-47.596 9.097 0 17.598 2.552 24.825 6.979l-0.208-0.118 124.191 74.22c1.73 1.153 3.857 1.839 6.144 1.839s4.414-0.687 6.185-1.865l-0.041 0.026 137.994-82.698c7.056-4.129 15.511-6.621 24.536-6.758h0.040c0.163-0.002 0.356-0.003 0.549-0.003 8.791 0 16.994 2.518 23.928 6.872l-0.188-0.11 138.691 82.698c1.752 1.075 3.874 1.712 6.144 1.712s4.392-0.637 6.196-1.742l-0.052 0.030 123.494-74.26c7.011-4.289 15.497-6.829 24.576-6.829 26.309 0 47.636 21.328 47.636 47.636 0 0.054 0 0.107 0 0.161v-0.008zM818.299 41.103l-93.471 56.402c-11.647 7.142-25.748 11.372-40.837 11.372s-29.19-4.23-41.183-11.568l0.346 0.197-128.573-76.636-127.918 76.636c-11.626 7.193-25.723 11.456-40.817 11.456s-29.191-4.263-41.154-11.65l0.337 0.194-94.208-56.402v783.933c0.023 37.263 30.236 67.461 67.502 67.461h472.433c37.266 0 67.479-30.198 67.502-67.459v-0.002z" />
<glyph unicode="&#xe936;" horiz-adv-x="1026" d="M1025.754 602.826v-520.783c0.002-0.295 0.003-0.643 0.003-0.992 0-80.079-64.917-144.997-144.997-144.997-0.24 0-0.48 0.001-0.719 0.002h-734.366c-0.203-0.001-0.442-0.002-0.682-0.002-80.079 0-144.997 64.917-144.997 144.997 0 0.349 0.001 0.697 0.004 1.045v-0.053 730.641c-0.003 0.353-0.005 0.771-0.005 1.189 0 80.553 65.165 145.885 145.655 146.156h539.28l36.772-243.575z" />
<glyph unicode="&#xe937;" horiz-adv-x="1026" d="M684.958 959.689l339.806-356.834h-226.292c-0.025 0-0.055 0-0.085 0-62.692 0-113.514 50.822-113.514 113.514 0 0.030 0 0.060 0 0.090v-0.005z" />
<glyph unicode="&#xe938;" horiz-adv-x="1026" d="M155.972 238.949h67.605v-65.285h-67.605v65.285z" />
<glyph unicode="&#xe939;" horiz-adv-x="1026" d="M222.785 128.207h16.038c0.572-0.055 1.237-0.087 1.909-0.087 4.913 0 9.433 1.684 13.014 4.505l-0.045-0.034c2.908 3.424 4.677 7.896 4.677 12.78 0 0.679-0.034 1.351-0.101 2.012l0.007-0.083v239.417h65.823v-238.653c0.416-2.812 0.654-6.058 0.654-9.359 0-37.181-30.141-67.322-67.322-67.322-3.424 0-6.789 0.256-10.076 0.749l0.37-0.046h-24.836zM262.386 422.387c-6.573 5.794-10.698 14.232-10.698 23.634 0 0.214 0.002 0.427 0.006 0.639l-0.001-0.032c-0.006 0.236-0.010 0.514-0.010 0.793 0 9.459 4.123 17.955 10.67 23.788l0.032 0.028c7.71 6.088 17.569 9.765 28.287 9.765s20.576-3.677 28.384-9.839l-0.097 0.074c6.579-5.866 10.702-14.366 10.702-23.828 0-0.275-0.003-0.548-0.010-0.821l0.001 0.040c0.004-0.177 0.006-0.386 0.006-0.595 0-9.406-4.125-17.848-10.664-23.617l-0.034-0.030c-7.71-6.088-17.569-9.765-28.287-9.765s-20.576 3.677-28.384 9.839l0.097-0.074z" />
<glyph unicode="&#xe93a;" horiz-adv-x="1026" d="M548.334 376.251c14.231-9.303 25.458-22.119 32.607-37.242l0.233-0.549c7.603-17.134 12.030-37.122 12.030-58.143s-4.427-41.009-12.399-59.081l0.369 0.938c-7.341-15.757-18.577-28.646-32.499-37.778l-0.342-0.21c-13.011-8.277-28.864-13.191-45.865-13.191-0.453 0-0.905 0.003-1.357 0.010l0.068-0.001c-0.649-0.020-1.413-0.031-2.179-0.031-14.716 0-28.468 4.125-40.164 11.283l0.337-0.192c-11.369 7.167-20.176 17.486-25.301 29.73l-0.157 0.424v-140.131h-65.314v314.659h65.314v-38.555c5.279 12.678 14.086 23.007 25.194 30.026l0.264 0.156c11.366 6.965 25.126 11.090 39.849 11.090 0.758 0 1.514-0.011 2.267-0.033l-0.111 0.003c0.395 0.007 0.861 0.010 1.328 0.010 16.988 0 32.828-4.915 46.175-13.4l-0.35 0.208zM446.503 318.207c-8.207-10.309-13.167-23.52-13.167-37.89s4.961-27.581 13.263-38.014l-0.096 0.125c8.683-8.742 20.71-14.154 34.001-14.154 13.094 0 24.961 5.252 33.61 13.764l-0.006-0.006c7.981 10.492 12.786 23.779 12.786 38.187s-4.805 27.694-12.9 38.343l0.114-0.156c-8.671 8.524-20.572 13.787-33.702 13.787-13.229 0-25.211-5.342-33.905-13.987l0.002 0.002z" />
<glyph unicode="&#xe93b;" horiz-adv-x="1026" d="M750.158 378.344c11.468-7.228 20.414-17.53 25.799-29.754l0.168-0.427v38.583h64.918v-211.923c0.013-0.676 0.021-1.472 0.021-2.27 0-18.678-4.179-36.379-11.653-52.221l0.317 0.747c-7.828-16.062-19.879-29.031-34.72-37.765l-0.412-0.224c-15.807-8.943-34.713-14.213-54.85-14.213-1.392 0-2.777 0.025-4.157 0.075l0.2-0.006c-1.876-0.104-4.071-0.163-6.279-0.163-26.533 0-51.069 8.545-71.008 23.034l0.348-0.241c-18.724 14.861-31.484 36.534-34.521 61.216l-0.045 0.448h64.465c1.904-8.513 6.947-15.606 13.824-20.15l0.121-0.075c7.453-4.598 16.487-7.322 26.156-7.322 0.809 0 1.614 0.019 2.413 0.057l-0.113-0.004c0.614-0.029 1.334-0.046 2.058-0.046 11.774 0 22.51 4.44 30.626 11.737l-0.042-0.037c7.826 8.657 12.614 20.188 12.614 32.838 0 1.545-0.071 3.073-0.211 4.581l0.014-0.193v37.593c-5.55-12.645-14.497-22.939-25.691-29.991l-0.276-0.162c-11.366-6.965-25.126-11.090-39.849-11.090-0.758 0-1.514 0.011-2.267 0.033l0.111-0.003c-0.388-0.006-0.846-0.010-1.305-0.010-16.996 0-32.843 4.914-46.2 13.4l0.351-0.208c-14.262 9.343-25.498 22.232-32.609 37.436l-0.232 0.553c-7.599 17.13-12.024 37.113-12.024 58.129s4.424 40.998 12.393 59.067l-0.369-0.938c7.384 15.671 18.611 28.487 32.497 37.579l0.344 0.211c12.997 8.277 28.837 13.192 45.825 13.192 0.467 0 0.933-0.004 1.399-0.011l-0.070 0.001c0.636 0.019 1.384 0.029 2.134 0.029 14.731 0 28.498-4.125 40.21-11.282l-0.339 0.192zM695.452 318.377c-7.989-10.49-12.8-23.776-12.8-38.187s4.811-27.697 12.914-38.342l-0.113 0.155c8.641-8.497 20.502-13.744 33.589-13.744 13.284 0 25.306 5.406 33.985 14.137l0.002 0.002c8.207 10.309 13.167 23.52 13.167 37.89s-4.961 27.581-13.263 38.014l0.096-0.125c-8.123 8.609-19.609 13.969-32.348 13.969-0.512 0-1.021-0.009-1.528-0.026l0.074 0.002c-0.539 0.024-1.172 0.037-1.808 0.037-12.584 0-23.934-5.288-31.947-13.764l-0.019-0.021z" />
<glyph unicode="&#xe93c;" glyph-name="kara" data-tags="kara" d="M764.443 16.627h-12.557q-111.778 0-223.609 0c-0.371-0.029-0.803-0.045-1.239-0.045-6.040 0-11.351 3.125-14.403 7.846l-0.041 0.067q-142.875 195.261-285.965 390.198c-1.832 2.533-3.449 5.389-5.389 8.408 18.001 13.528 35.409 26.947 53.464 39.936 67.966 46.578 123.158 106.868 162.537 177.209l1.356 2.638c35.966 65.342 57.739 142.953 59.277 225.512l0.007 0.469c0 3.126 0.377 6.198 0.593 10.132h194.668c0.001-0.416 0.001-0.91 0.001-1.403 0-190.444-77.171-362.863-201.947-487.694l0.002 0.002zM0 879.158h198.494c0-3.988 0.593-7.707 0.593-11.426q0-419.193 0-838.494c0-10.294-3.018-12.935-13.043-12.827-57.991 0.431-116.035 0-174.026 0h-12.234zM789.612 116.224c0 0.062 0 0.135 0 0.209 0 60.215 48.814 109.029 109.029 109.029s109.029-48.814 109.029-109.029c0-60.215-48.814-109.029-109.029-109.029-0.436 0-0.871 0.003-1.305 0.008l0.066-0.001c-59.596 0.305-107.791 48.688-107.791 108.327 0 0.171 0 0.342 0.001 0.513v-0.026z" />
<glyph unicode="&#xe93d;" glyph-name="language" data-tags="language" horiz-adv-x="1025" d="M168.771 706.13v0c0.147-0.001 0.322-0.001 0.496-0.001 46.999 0 85.099 38.1 85.099 85.099 0 23.566-9.579 44.894-25.055 60.304l-0.003 0.003c-15.697 15.013-37.024 24.253-60.508 24.253-0.010 0-0.020 0-0.031 0h0.002c-0.462 0.009-1.006 0.014-1.551 0.014-45.974 0-83.323-36.925-84.010-82.735l-0.001-0.065c0.071-24.059 9.596-45.88 25.053-61.954l-0.028 0.029c15.546-15.4 36.919-24.941 60.521-25.024h0.016zM856.232 188.366c-46.928-0.428-84.806-38.569-84.806-85.558 0-47.254 38.307-85.561 85.561-85.561s85.561 38.307 85.561 85.561c0 22.942-9.029 43.775-23.728 59.139l0.030-0.032c-15.219 16.306-36.838 26.47-60.831 26.47-0.629 0-1.256-0.007-1.881-0.021l0.093 0.002zM29.806 275.47l45.923 17.583c-17.017 46.196-26.861 99.547-26.861 155.196 0 74.463 17.625 144.81 48.931 207.096l-1.21-2.657-43.803 22.094c-33.343-66.238-52.868-144.359-52.868-227.040 0-61.766 10.896-120.987 30.87-175.846l-1.138 3.574zM512.559 911.301c155.67-1.412 293.272-77.519 378.874-194.167l0.928-1.325c3.47-3.47 6.246-7.712 9.061-10.449v194.104h-48.661v-68.866l-9.755 8.329c-88.575 75.283-204.26 121.069-330.638 121.069-82.522 0-160.484-19.522-229.52-54.2l2.947 1.341 22.248-43.841c59.139 30.269 129.009 48.007 203.023 48.007 0.47 0 0.941-0.001 1.411-0.002h-0.073zM995.351 620.53l-45.923-17.39c17.017-46.196 26.861-99.547 26.861-155.196 0-74.463-17.625-144.81-48.931-207.096l1.21 2.657 43.841-22.248c33.343 66.238 52.868 144.359 52.868 227.040 0 61.766-10.896 120.987-30.87 175.846l1.138-3.574zM512.598-15.301c-155.67 1.412-293.272 77.519-378.874 194.167l-0.928 1.325c-3.47 3.47-6.246 7.712-9.061 10.449v-194.065h48.699v68.866l9.755-8.329c88.571-75.268 204.244-121.044 330.609-121.044 82.533 0 160.504 19.527 229.547 54.214l-2.946-1.341-22.248 43.841c-59.139-30.269-129.009-48.007-203.023-48.007-0.47 0-0.941 0.001-1.411 0.002h0.073zM670.495 160.719c102.308 56.63 170.429 163.927 170.429 287.134 0 0.058 0 0.117 0 0.175v-0.009c0 7.712-0.694 15.423-0.694 24.33h-84.829c-13.368-0.172-24.159-10.963-24.33-24.314v-0.016c0-0.092 0-0.201 0-0.31 0-53.238-43.158-96.396-96.396-96.396-0.176 0-0.353 0-0.529 0.001h-60.51c-0.243 0.009-0.529 0.014-0.816 0.014-13.175 0-23.892-10.522-24.208-23.621l-0.001-0.029c-0.002-0.11-0.003-0.239-0.003-0.369 0-13.264 10.464-24.084 23.588-24.654l0.051-0.002h2.082c0.138 0.001 0.3 0.001 0.463 0.001 53.238 0 96.396-43.158 96.396-96.396 0-0.122 0-0.245-0.001-0.367v0.019-45.229zM330.331 423.65c13.368 0.172 24.159 10.963 24.33 24.314v0.016c0 0.057 0 0.125 0 0.193 0 53.238 43.158 96.396 96.396 96.396 0.108 0 0.217 0 0.325-0.001h-0.017c13.448 0 24.35 10.902 24.35 24.35s-10.902 24.35-24.35 24.35v0h-29.921c-60.978 0.134-111.818 43.376-123.671 100.861l-0.141 0.818c-69.194-59.871-112.711-147.811-112.711-245.914 0-0.614 0.002-1.228 0.005-1.841v0.094c-0.027-1.064-0.042-2.318-0.042-3.575 0-7.321 0.52-14.52 1.525-21.563l-0.094 0.807zM427.615 448.019c0-0.092 0-0.2 0-0.309 0-53.238-43.158-96.396-96.396-96.396-0.109 0-0.217 0-0.326 0.001h-131.468c42.119-135.041 166.025-231.361 312.427-231.361 30.668 0 60.348 4.226 88.49 12.129l-2.299-0.551v73.685c-0.172 13.368-10.963 24.159-24.314 24.33h-0.016c-52.927 0.876-95.496 43.986-95.496 97.039 0 52.809 42.178 95.767 94.685 97.024l0.117 0.002h60.537c13.368 0.172 24.159 10.963 24.33 24.314v0.016c0 0.092 0 0.2 0 0.309 0 53.238 43.158 96.396 96.396 96.396 0.109 0 0.217 0 0.326-0.001h70.16c-43.123 134.608-166.657 230.555-312.768 231.698l-0.135 0.001c-50.858-0.014-98.954-11.824-141.705-32.844l1.891 0.84c-3.426-6.743-5.468-14.691-5.552-23.107v-0.028c-0.001-0.092-0.001-0.201-0.001-0.309 0-30.175 24.462-54.637 54.637-54.637 0.109 0 0.217 0 0.326 0.001h30.599c0.771 0.022 1.679 0.035 2.59 0.035 53.6 0 97.052-43.452 97.052-97.052 0-53.291-42.951-96.55-96.124-97.048h-3.517c-0.034 0-0.075 0-0.116 0-13.373 0-24.215-10.841-24.215-24.215 0-0.041 0-0.081 0-0.122v0.006z" />
<glyph unicode="&#xe93e;" glyph-name="leftarrow" data-tags="leftarrow" d="M211.862 65.977l380.469 380.469-365.992 365.992 147.597 147.562 387.778-387.814c32.122-32.212 51.984-76.666 51.984-125.758s-19.862-93.545-51.988-125.762l-402.287-402.287z" />
<glyph unicode="&#xe93f;" glyph-name="leftlongarrow" data-tags="leftlongarrow" d="M276.855 165.478l47.787 47.787-199.612 199.612h884.804v67.55h-876.169l192.922 192.887-47.787 47.787-278.767-278.767z" />
<glyph unicode="&#xe940;" glyph-name="linkedin" data-tags="linkedin" d="M1024.059-64v375.046c0 184.324-39.697 325.099-254.771 325.099-2.675 0.115-5.814 0.181-8.967 0.181-81.489 0-152.738-43.846-191.44-109.234l-0.565-1.031h-2.548v93.732h-203.52v-683.496h212.526v339.2c0 89.584 16.59 175.377 126.674 175.377 108.84 0 110.085-101.138 110.085-180.532v-332.742h212.526zM16.649 619.496h212.467v-683.555h-212.467v683.555zM122.942 960c-0.211 0.001-0.46 0.002-0.709 0.002-68.226 0-123.534-55.308-123.534-123.534s55.308-123.534 123.534-123.534c68.226 0 123.534 55.308 123.534 123.534 0 0.228-0.001 0.457-0.002 0.685v-0.035c-0.034 67.832-54.996 122.815-122.817 122.882h-0.006z" />
<glyph unicode="&#xe941;" d="M891.423 420.176c-3.359 2.226-7.484 3.552-11.918 3.552-7.591 0-14.275-3.885-18.171-9.775l-0.050-0.081-35.756-54.624c-2.223-3.357-3.546-7.479-3.546-11.91 0-12.024 9.748-21.772 21.772-21.772 7.594 0 14.279 3.888 18.175 9.781l0.050 0.081 35.733 54.639c2.229 3.357 3.557 7.481 3.557 11.914 0 7.581-3.881 14.255-9.765 18.144l-0.081 0.050z" />
<glyph unicode="&#xe942;" d="M922.609 501.622c-2.112 0.751-4.547 1.186-7.084 1.186-9.488 0-17.557-6.073-20.532-14.544l-0.047-0.152c-1.865-5.41-3.874-10.798-5.846-16.17l-1.421-3.821c-0.847-2.234-1.338-4.817-1.338-7.514 0-9.325 5.862-17.28 14.102-20.382l0.15-0.050c2.222-0.852 4.793-1.345 7.479-1.345 0.014 0 0.029 0 0.043 0h-0.002c9.323 0.008 17.275 5.867 20.384 14.102l0.050 0.15 1.406 3.821c2.079 5.67 4.188 11.348 6.113 17.102 0.75 2.109 1.184 4.541 1.184 7.074 0 9.463-6.048 17.513-14.489 20.496l-0.152 0.047z" />
<glyph unicode="&#xe943;" d="M875.963 871.951c-3.98 5.72-10.522 9.417-17.927 9.417-12.024 0-21.771-9.747-21.771-21.771 0-4.859 1.592-9.346 4.282-12.968l-0.041 0.058c46.719-64.49 74.732-145.19 74.732-232.433 0-23.422-2.019-46.373-5.893-68.687l0.342 2.38c-0.188-1.075-0.296-2.312-0.296-3.575 0-10.752 7.799-19.682 18.048-21.441l0.129-0.018c1.056-0.19 2.271-0.298 3.512-0.298 0.031 0 0.062 0 0.092 0h-0.005c10.747 0.024 19.665 7.826 21.425 18.073l0.018 0.129c3.916 22.102 6.154 47.547 6.154 73.516 0 96.692-31.037 186.135-83.691 258.91l0.89-1.292z" />
<glyph unicode="&#xe944;" d="M125.639 783.987c2.813-1.445 6.138-2.293 9.662-2.293 0.021 0 0.041 0 0.062 0h-0.003c8.457 0.004 15.787 4.829 19.391 11.875l0.057 0.123c10.333 20.424 20.939 37.773 32.75 54.198l-0.822-1.202c2.616 3.55 4.187 8.010 4.187 12.837 0 12.024-9.747 21.771-21.771 21.771-7.367 0-13.88-3.66-17.82-9.26l-0.046-0.069c-12.173-16.874-23.925-36.106-34.2-56.219l-1.174-2.531c-1.46-2.844-2.316-6.205-2.316-9.766 0-8.475 4.847-15.817 11.92-19.406l0.124-0.057z" />
<glyph unicode="&#xe945;" d="M99.022 701.15c1.669-0.483 3.587-0.762 5.57-0.764h0.001c10.045 0.018 18.493 6.831 20.995 16.086l0.035 0.153c1.742 6.618 3.668 13.22 5.777 19.739 0.669 1.999 1.055 4.302 1.055 6.694 0 12.020-9.744 21.764-21.764 21.764-9.628 0-17.795-6.251-20.665-14.916l-0.044-0.154c-2.369-7.283-4.501-14.649-6.457-22.024-0.454-1.66-0.715-3.567-0.715-5.534 0-10.046 6.807-18.503 16.060-21.009l0.152-0.035z" />
<glyph unicode="&#xe946;" d="M114.428 655.719c0.093 0.756 0.146 1.631 0.146 2.518 0 12.020-9.744 21.764-21.764 21.764-11.292 0-20.575-8.6-21.658-19.607l-0.007-0.090c-11.975-113.282 21.764-229.093 94.987-326.083 4.016-5.283 10.304-8.66 17.381-8.66 12.025 0 21.773 9.748 21.773 21.773 0 4.948-1.65 9.51-4.431 13.167l0.039-0.054c-66.552 88.14-97.288 193.001-86.467 295.271z" />
<glyph unicode="&#xe947;" d="M514.843 853c-0.397 0-0.764 0.061-1.184 0.061-37.047-0.044-72.119-8.452-103.445-23.435l1.45 0.625c-7.441-3.568-12.488-11.041-12.488-19.693 0-12.019 9.739-21.763 21.757-21.771h0.001c0.008 0 0.017 0 0.027 0 3.366 0 6.55 0.775 9.385 2.157l-0.127-0.056c24.328 11.676 52.876 18.539 83.017 18.638h0.393c0.005 0 0.010 0 0.016 0 108.174 0 195.867-87.693 195.867-195.867 0-30.312-6.886-59.016-19.178-84.633l0.509 1.177c-1.308-2.714-2.072-5.9-2.072-9.266 0-12.016 9.741-21.757 21.757-21.757 8.651 0 16.122 5.049 19.629 12.36l0.056 0.131c14.406 29.872 22.825 64.955 22.825 102.005 0 131.782-106.503 238.69-238.131 239.345h-0.062z" />
<glyph unicode="&#xe948;" d="M659.349 482.74c-4.553-5.068-9.192-9.733-14.055-14.156l-0.159-0.142c-4.537-4.007-7.384-9.838-7.384-16.333 0-12.016 9.741-21.756 21.756-21.756 5.747 0 10.973 2.228 14.862 5.868l-0.012-0.011c6.133 5.576 11.801 11.261 17.181 17.212l0.188 0.212c3.339 3.807 5.376 8.827 5.376 14.324 0 12.024-9.747 21.771-21.771 21.771-6.31 0-11.993-2.684-15.969-6.974l-0.013-0.014z" />
<glyph unicode="&#xe949;" d="M597.076 436.407c-24.442-11.785-53.147-18.672-83.462-18.672-108.174 0-195.867 87.693-195.867 195.867 0 30.316 6.888 59.024 19.183 84.644l-0.509-1.177c1.336 2.739 2.117 5.96 2.117 9.363 0 12.020-9.744 21.764-21.764 21.764-8.687 0-16.185-5.089-19.675-12.448l-0.056-0.132c-14.401-29.87-22.815-64.951-22.815-101.998 0-132.218 107.184-239.402 239.402-239.402 37.032 0 72.101 8.408 103.4 23.42l-1.439-0.622c7.451 3.562 12.506 11.039 12.506 19.697 0 12.020-9.744 21.764-21.764 21.764-3.362 0-6.546-0.762-9.389-2.124l0.131 0.057z" />
<glyph unicode="&#xe94a;" d="M351.729 737.295c6.426 0.005 12.201 2.787 16.191 7.21l0.017 0.019c4.551 5.070 9.19 9.735 14.055 14.156l0.159 0.142c4.226 3.978 6.858 9.609 6.858 15.855 0 12.016-9.741 21.756-21.756 21.756-5.508 0-10.538-2.047-14.371-5.422l0.024 0.021c-6.139-5.575-11.81-11.263-17.189-17.219l-0.189-0.212c-3.457-3.837-5.572-8.943-5.572-14.542 0-12.020 9.744-21.764 21.764-21.764 0.003 0 0.006 0 0.009 0v0z" />
<glyph unicode="&#xe94b;" d="M513.628 461.274c0.002 0 0.005 0 0.008 0 84.143 0 152.354 68.211 152.354 152.354s-68.211 152.354-152.354 152.354c-84.143 0-152.354-68.211-152.354-152.354 0-0.003 0-0.005 0-0.008v0c1.121-83.684 68.663-151.225 152.24-152.346l0.107-0.001zM513.628 722.447c60.099 0 108.819-48.72 108.819-108.819s-48.72-108.819-108.819-108.819c-60.096 0-108.815 48.716-108.819 108.811v0c0.807 59.773 49.046 108.016 108.742 108.826l0.077 0.001z" />
<glyph unicode="&#xe94c;" d="M856.018 501.416c9.516 30.661 14.997 65.912 14.997 102.444 0 197.382-160.010 357.391-357.391 357.391s-357.391-160.010-357.391-357.391c0-10.827 0.481-21.542 1.424-32.124l-0.098 1.368c5.701-65.781 32.096-131.324 80.72-200.36 21.344-30.284 44.238-59.919 66.407-88.584 17.614-22.75 35.657-46.103 52.919-69.785-4.677-2.996-8.7-6.472-12.171-10.442l-0.056-0.065c-9.247-10.955-14.867-25.232-14.867-40.823 0-0.244 0.001-0.488 0.004-0.732v0.037c-0.001-0.137-0.002-0.3-0.002-0.463 0-15.44 5.42-29.613 14.461-40.722l-0.093 0.118c-8.946-10.865-14.37-24.922-14.37-40.245 0-0.225 0.001-0.449 0.003-0.673v0.034c-0.022-0.606-0.035-1.319-0.035-2.034 0-26.358 17.108-48.72 40.826-56.587l0.421-0.121c8.814-48.386 50.604-84.599 100.864-84.663h81.95c50.293 0.069 92.097 36.324 100.777 84.121l0.094 0.626c10.547 3.255 19.463 9.205 26.242 17.053l0.061 0.072c9.256 10.964 14.882 25.255 14.882 40.86 0 0.237-0.001 0.473-0.004 0.709v-0.036c0.001 0.133 0.002 0.29 0.002 0.448 0 15.446-5.423 29.625-14.469 40.737l0.093-0.118c8.95 10.87 14.377 24.934 14.377 40.265 0 0.217-0.001 0.435-0.003 0.652v-0.033c0.008 0.367 0.012 0.8 0.012 1.233 0 21.146-10.649 39.805-26.876 50.908l-0.211 0.137c32.554 45.851 64.535 88.186 97.265 128.802 44.192 54.7 74.202 107.864 89.233 157.986zM636.11 182.838h0.413c0.107 0.002 0.233 0.003 0.36 0.003 10.424 0 18.875-8.451 18.875-18.875 0-0.569-0.025-1.132-0.074-1.688l0.005 0.072c0.004-0.158 0.006-0.345 0.006-0.532 0-5.418-1.871-10.399-5.002-14.333l0.036 0.047c-3.225-3.516-7.84-5.712-12.968-5.712-0.428 0-0.852 0.015-1.272 0.045l0.056-0.003h-20.48c-11.315 0-20.488-9.173-20.488-20.488s9.173-20.488 20.488-20.488v0h20.457c0.107 0.002 0.233 0.003 0.36 0.003 10.424 0 18.875-8.451 18.875-18.875 0-0.569-0.025-1.132-0.074-1.688l0.005 0.072c0.004-0.158 0.006-0.343 0.006-0.529 0-5.419-1.871-10.401-5.002-14.335l0.036 0.047c-3.225-3.516-7.84-5.712-12.968-5.712-0.428 0-0.852 0.015-1.272 0.045l0.056-0.003h-245.806c-0.11-0.002-0.239-0.004-0.368-0.004-10.42 0-18.868 8.447-18.868 18.868 0 0.572 0.025 1.137 0.075 1.696l-0.005-0.072c-0.004 0.161-0.006 0.352-0.006 0.542 0 5.412 1.871 10.387 5.002 14.314l-0.036-0.046c3.218 3.521 7.829 5.72 12.955 5.72 0.429 0 0.855-0.015 1.277-0.046l-0.057 0.003h81.951c11.315 0 20.488 9.173 20.488 20.488s-9.173 20.488-20.488 20.488v0h-81.92c-0.11-0.002-0.239-0.004-0.368-0.004-10.42 0-18.868 8.447-18.868 18.868 0 0.572 0.025 1.137 0.075 1.696l-0.005-0.072c-0.004 0.165-0.007 0.358-0.007 0.553 0 5.406 1.871 10.376 5.002 14.295l-0.035-0.046c3.226 3.524 7.846 5.726 12.981 5.726 0.42 0 0.837-0.015 1.25-0.044l-0.056 0.003zM554.603-22.031h-81.943c-26.569 0.045-49.183 16.929-57.743 40.547l-0.136 0.428h197.693c-8.691-24.047-31.304-40.932-57.866-40.975h-0.005zM625.924 223.805h-224.669c-20.755 29.215-42.733 57.772-64.115 85.42-21.871 28.275-44.491 57.573-65.322 87.116-44.322 62.93-68.333 121.909-73.399 180.3-0.813 8.484-1.277 18.343-1.277 28.311 0 173.642 140.764 314.406 314.406 314.406 26.263 0 51.774-3.22 76.16-9.287l-2.163 0.455c141.136-32.778 244.706-157.454 244.706-306.321 0-32.48-4.93-63.809-14.083-93.278l0.595 2.225c-13.511-45.025-41.044-93.497-81.813-144.055-36.704-45.484-72.429-93.153-109.025-145.293z" />
<glyph unicode="&#xe94d;" d="M535.369 79.184h21.771c12.028 0 21.779 9.751 21.779 21.779s-9.751 21.779-21.779 21.779h-21.771c-12.028 0-21.779-9.751-21.779-21.779s9.751-21.779 21.779-21.779v0z" />
<glyph unicode="&#xe94e;" glyph-name="paypal" data-tags="paypal" d="M816.667 880.883c-48.936 55.296-137.432 79.117-250.611 79.117h-328.758c-0.029 0-0.063 0-0.097 0-23.263 0-42.583-16.883-46.375-39.065l-0.039-0.279-136.785-860.753c-0.212-1.296-0.334-2.79-0.334-4.312 0-15.478 12.547-28.025 28.025-28.025 0.060 0 0.121 0 0.181 0.001h202.797l50.931 320.512-1.563-10.132c3.736 22.414 22.986 39.29 46.177 39.29 0.061 0 0.121 0 0.182 0h96.355c189.386 0 337.597 76.315 380.928 297.068 1.293 6.575 3.341 19.079 3.341 19.079 4.025 15.329 6.336 32.927 6.336 51.066 0 52.269-19.192 100.056-50.914 136.697l0.222-0.263zM912.546 651.668c-47.050-217.304-197.255-332.261-435.577-332.261h-86.232l-64.674-408.253h140.126c0.057 0 0.123 0 0.19 0 20.338 0 37.214 14.823 40.414 34.255l0.032 0.238 1.671 8.623 32.337 202.644 2.102 11.156c3.256 19.674 20.143 34.493 40.492 34.493 0.032 0 0.064 0 0.096 0h25.811c165.619 0 295.289 66.722 333.177 259.773 5.711 18.844 8.998 40.501 8.998 62.926 0 47.208-14.569 91.012-39.456 127.163l0.493-0.757z" />
<glyph unicode="&#xe94f;" horiz-adv-x="1026" d="M1025.754 602.798v-520.783c0.002-0.295 0.003-0.643 0.003-0.992 0-80.079-64.917-144.997-144.997-144.997-0.24 0-0.48 0.001-0.719 0.002h-734.366c-0.203-0.001-0.442-0.002-0.682-0.002-80.079 0-144.997 64.917-144.997 144.997 0 0.349 0.001 0.697 0.004 1.045v-0.053 730.641c-0.003 0.353-0.005 0.771-0.005 1.189 0 80.553 65.165 145.885 145.655 146.156h539.28l36.772-243.575z" />
<glyph unicode="&#xe950;" horiz-adv-x="1026" d="M684.93 959.661l339.806-356.834h-226.292c-0.025 0-0.055 0-0.085 0-62.692 0-113.514 50.822-113.514 113.514 0 0.030 0 0.060 0 0.090v-0.005z" />
<glyph unicode="&#xe951;" horiz-adv-x="1026" d="M136.68 238.92h67.605v-65.285h-67.605v65.285z" />
<glyph unicode="&#xe952;" horiz-adv-x="1026" d="M418.301 376.223c14.23-9.304 25.457-22.12 32.607-37.242l0.234-0.549c7.603-17.134 12.030-37.122 12.030-58.143s-4.427-41.009-12.399-59.081l0.369 0.938c-7.342-15.756-18.578-28.645-32.499-37.778l-0.342-0.21c-13.005-8.277-28.853-13.191-45.849-13.191-0.459 0-0.917 0.004-1.374 0.011l0.069-0.001c-0.649-0.020-1.413-0.031-2.179-0.031-14.716 0-28.468 4.125-40.164 11.283l0.337-0.192c-11.367 7.17-20.172 17.488-25.3 29.729l-0.158 0.424v-140.131h-65.314v314.659h65.314v-38.555c5.282 12.676 14.089 23.004 25.194 30.026l0.264 0.156c11.366 6.965 25.126 11.090 39.849 11.090 0.758 0 1.514-0.011 2.267-0.033l-0.111 0.003c0.4 0.007 0.872 0.010 1.344 0.010 16.983 0 32.817-4.915 46.159-13.4l-0.35 0.208zM316.469 318.179c-8.202-10.311-13.16-23.521-13.16-37.89s4.958-27.579 13.256-38.015l-0.096 0.125c8.683-8.742 20.71-14.154 34.001-14.154 13.094 0 24.961 5.252 33.61 13.764l-0.006-0.006c7.989 10.49 12.8 23.776 12.8 38.187s-4.811 27.697-12.914 38.342l0.113-0.155c-8.037 8.496-19.39 13.784-31.978 13.784-0.632 0-1.26-0.013-1.885-0.040l0.089 0.003c-0.471 0.018-1.024 0.028-1.58 0.028-12.744 0-24.236-5.361-32.344-13.952l-0.020-0.022z" />
<glyph unicode="&#xe953;" horiz-adv-x="1026" d="M620.125 378.316c11.363-7.185 20.167-17.511 25.3-29.757l0.158-0.425v108.054h65.285v-282.582h-65.285v38.611c-5.289-12.663-14.094-22.981-25.193-29.997l-0.265-0.156c-11.371-6.965-25.136-11.090-39.864-11.090-0.753 0-1.504 0.011-2.251 0.032l0.11-0.002c-0.386-0.006-0.841-0.010-1.297-0.010-16.998 0-32.849 4.914-46.208 13.4l0.351-0.208c-14.261 9.345-25.497 22.233-32.609 37.436l-0.232 0.552c-7.599 17.13-12.024 37.113-12.024 58.129s4.424 40.998 12.393 59.067l-0.369-0.938c7.385 15.67 18.612 28.486 32.497 37.579l0.344 0.211c13.003 8.277 28.848 13.192 45.841 13.192 0.462 0 0.922-0.004 1.382-0.011l-0.069 0.001c0.633 0.019 1.379 0.029 2.126 0.029 14.733 0 28.503-4.125 40.218-11.282l-0.339 0.193zM565.334 318.377c-7.981-10.492-12.786-23.779-12.786-38.187s4.805-27.694 12.9-38.343l-0.114 0.156c8.643-8.506 20.51-13.758 33.603-13.758 13.291 0 25.318 5.411 33.999 14.151l0.003 0.003c8.207 10.309 13.167 23.52 13.167 37.89s-4.961 27.581-13.263 38.014l0.096-0.125c-8.123 8.609-19.609 13.969-32.348 13.969-0.512 0-1.021-0.009-1.528-0.026l0.074 0.002c-0.544 0.024-1.182 0.038-1.823 0.038-12.588 0-23.942-5.288-31.96-13.764l-0.019-0.021z" />
<glyph unicode="&#xe954;" horiz-adv-x="1026" d="M860.702 415.711c-0.883 0.084-1.909 0.131-2.946 0.131-7.711 0-14.806-2.637-20.433-7.059l0.071 0.054c-4.98-5.568-8.024-12.959-8.024-21.061 0-0.382 0.007-0.763 0.020-1.142l-0.002 0.055h38.555v-54.989h-38.555v-158.178h-65.285v158.15h-25.458v54.989h25.458v2.291c-0.099 1.491-0.156 3.231-0.156 4.985 0 21.971 8.889 41.867 23.268 56.285l-0.002-0.002c16.275 13.571 37.409 21.809 60.468 21.809 2.302 0 4.586-0.082 6.847-0.244l-0.304 0.017q9.165 0 13.747-0.396v-56.12z" />
<glyph unicode="&#xe955;" d="M874.577 534.138c-78.361 86.508-124.898 162.699-150.163 211.365-27.374 52.721-36.327 85.392-36.398 85.671l-8.141 30.771-29.093-12.972c-55.809-28.427-100.152-72.58-128.053-126.603l-0.763-1.625c-22.609-45.218-27.126-95.556-26.938-129.82 0-0.050 0-0.109 0-0.169 0-23.081-18.711-41.791-41.791-41.791-11.529 0-21.968 4.669-29.53 12.219v0l-54.181 54.181-18.64-25.701c-1.936-2.666-47.484-65.49-55.762-78.037-38.294-57.339-61.11-127.847-61.11-203.685 0-204.347 165.656-370.004 370.004-370.004 204.346 0 370.001 165.654 370.004 369.999v0c0 73.961-36.235 156.413-99.424 226.203z" />
<glyph unicode="&#xe956;" d="M730.943 292.676c-52.442 0-92.038-35.12-92.038-96.479 0-61.846 39.596-96.479 92.038-96.479s92.023 34.634 92.023 96.479c0 61.339-39.576 96.479-92.023 96.479zM730.943 153.159c-10.899 0-21.798 9.89-21.798 43.043s10.884 43.043 21.798 43.043 21.763-9.89 21.763-43.043-10.884-43.043-21.763-43.043z" />
<glyph unicode="&#xe957;" d="M680.468 451.031h83.618l-236.509-346.36h-83.613z" />
<glyph unicode="&#xe958;" d="M477.123 455.964c-52.462 0-92.038-35.135-92.038-96.479 0-61.846 39.576-96.494 92.038-96.494s92.023 34.649 92.023 96.494c0 61.339-39.576 96.479-92.023 96.479zM476.581 315.884c-10.899 0-21.798 9.905-21.798 43.059s10.884 43.043 21.798 43.043 21.763-9.89 21.763-43.043-10.884-43.059-21.763-43.059z" />
<glyph unicode="&#xe959;" d="M266.838 771.554c0-4.704-1.566-115.205-137.845-115.205-3.631-0.145-6.521-3.124-6.521-6.778s2.889-6.633 6.507-6.777h0.013c135.893 0 137.824-110.511 137.845-115.215-0.005-0.099-0.008-0.215-0.008-0.332 0-3.62 2.935-6.555 6.555-6.555 3.504 0 6.365 2.749 6.546 6.207l0.001 0.016c9.226 95.217 78.838 113.106 115.286 115.874h1.348c3.211-0.265 6.951-0.415 10.726-0.415 3.933 0 7.828 0.164 11.678 0.485l-0.504-0.034c3.995 1.099 4.686 1.316 5.376 1.534l-3.302-0.9c0.409 0.215 0.761 0.453 1.085 0.723l-0.010-0.008c0.326 0.221 0.611 0.449 0.876 0.698l-0.004-0.003c0.273 0.317 0.523 0.671 0.738 1.046l0.018 0.033c0.2 0.278 0.389 0.593 0.551 0.925l0.017 0.039c0.148 0.397 0.264 0.861 0.326 1.342l0.003 0.032c0.091 0.265 0.17 0.585 0.223 0.913l0.005 0.035c0 0.106 0 0.223 0 0.324v0 0 0c0 0.106 0 0.223 0 0.324-0.057 0.363-0.137 0.682-0.24 0.99l0.012-0.042c-0.065 0.513-0.181 0.977-0.344 1.418l0.014-0.044c-0.179 0.37-0.368 0.686-0.581 0.983l0.013-0.019c-0.231 0.409-0.481 0.763-0.762 1.088l0.007-0.008c-0.261 0.248-0.546 0.476-0.849 0.68l-0.023 0.015c-0.314 0.264-0.666 0.503-1.042 0.704l-0.033 0.016c0.399-0.080-0.292 0.135-0.985 0.345l-1.089 0.284c-3.321 0.279-7.188 0.438-11.092 0.438-3.598 0-7.165-0.135-10.695-0.4l0.47 0.028c-16.187 1.075-31.257 4.538-45.3 10.046l1.024-0.354c-43.226 16.997-67.761 52.721-72.942 106.151-0.184 3.473-3.045 6.219-6.547 6.219-3.621 0-6.556-2.935-6.556-6.556 0-0.119 0.003-0.236 0.009-0.353l-0.001 0.016z" />
<glyph unicode="&#xe95a;" d="M530.062 596.039c0.148 0.005 0.322 0.008 0.497 0.008 8.612 0 15.593-6.981 15.593-15.593s-6.981-15.593-15.593-15.593c-8.611 0-15.592 6.98-15.593 15.59v0c-0.001 0.070-0.002 0.153-0.002 0.235 0 8.39 6.729 15.208 15.085 15.353h0.014z" />
<glyph unicode="&#xe95b;" d="M379.088 783.076c0.148 0.005 0.322 0.008 0.497 0.008 8.615 0 15.598-6.984 15.598-15.598s-6.984-15.598-15.598-15.598c-8.615 0-15.598 6.984-15.598 15.598 0 0.001 0 0.002 0 0.002v0c-0.001 0.071-0.002 0.156-0.002 0.24 0 8.391 6.733 15.209 15.090 15.348h0.013z" />
<glyph unicode="&#xe95c;" d="M596.576 843.735c0.148 0.005 0.322 0.008 0.497 0.008 8.612 0 15.593-6.981 15.593-15.593s-6.981-15.593-15.593-15.593c-8.611 0-15.592 6.98-15.593 15.59v0c-0.001 0.071-0.002 0.156-0.002 0.24 0 8.389 6.73 15.206 15.085 15.348h0.013z" />
<glyph unicode="&#xe95d;" d="M371.555 518.109c0.222 0.008 0.483 0.012 0.745 0.012 12.918 0 23.39-10.472 23.39-23.39s-10.472-23.39-23.39-23.39c-12.917 0-23.389 10.471-23.39 23.388v0c-0.002 0.108-0.003 0.235-0.003 0.363 0 12.583 10.095 22.807 22.628 23.016h0.020z" />
<glyph unicode="&#xe95e;" d="M70.803 841.84c0.224 0.008 0.486 0.012 0.75 0.012 12.921 0 23.395-10.474 23.395-23.395s-10.474-23.395-23.395-23.395c-12.921 0-23.395 10.474-23.395 23.395 0 0.001 0 0.002 0 0.003v0c-0.002 0.106-0.003 0.232-0.003 0.358 0 12.584 10.094 22.809 22.627 23.021h0.020z" />
<glyph unicode="&#xe95f;" d="M213.828 960c0.221 0.007 0.48 0.012 0.74 0.012 12.918 0 23.39-10.472 23.39-23.39s-10.472-23.39-23.39-23.39c-12.917 0-23.389 10.471-23.39 23.388v0c-0.002 0.108-0.003 0.235-0.003 0.363 0 12.584 10.098 22.81 22.633 23.017h0.019z" />
<glyph unicode="&#xe960;" glyph-name="pixelart" data-tags="pixelart" d="M538.317 960c-284.723 0-436.019-182.426-436.019-381.286 0-92.16 51.507-207.309 134.042-243.763 23.552-10.598 20.48 2.304 40.653 79.77 0.496 1.585 0.782 3.408 0.782 5.298 0 4.97-1.978 9.478-5.19 12.78l0.004-0.004c-117.76 136.448-22.989 416.922 248.883 416.922 393.472 0 319.949-544.461 68.454-544.461-2.228-0.19-4.821-0.298-7.44-0.298-51.294 0-92.877 41.582-92.877 92.877 0 7.553 0.902 14.895 2.603 21.925l-0.13-0.634c22.058 59.14 41.078 129.607 53.725 202.262l1.059 7.351c0 136.243-202.957 116.019-202.957-64.461-0.011-0.801-0.017-1.746-0.017-2.693 0-32.902 7.27-64.107 20.291-92.094l-0.563 1.347s-65.28-263.782-77.414-313.088c-4.625-30.232-7.267-65.11-7.267-100.606 0-45.791 4.396-90.555 12.79-133.893l-0.711 4.406c0.363-3.479 3.281-6.168 6.826-6.168 2.345 0 4.415 1.176 5.652 2.971l0.015 0.023c42.85 58.266 79.149 125.161 105.687 196.793l1.833 5.651c8.038 29.645 40.96 149.914 40.96 149.914 33.020-44.080 85.126-72.301 143.824-72.301 2.664 0 5.314 0.058 7.95 0.173l-0.375-0.013c198.861 0 342.63 174.797 342.63 391.731-0.717 207.974-178.688 363.52-407.757 363.52z" />
<glyph unicode="&#xe961;" horiz-adv-x="1026" d="M1025.754 602.798v-520.783c0.002-0.295 0.003-0.643 0.003-0.992 0-80.079-64.917-144.997-144.997-144.997-0.24 0-0.48 0.001-0.719 0.002h-734.366c-0.203-0.001-0.442-0.002-0.682-0.002-80.079 0-144.997 64.917-144.997 144.997 0 0.349 0.001 0.697 0.004 1.045v-0.053 730.641c-0.003 0.353-0.005 0.771-0.005 1.189 0 80.553 65.165 145.885 145.655 146.156h539.28l36.772-243.575z" />
<glyph unicode="&#xe962;" horiz-adv-x="1026" d="M684.93 959.661l339.806-356.834h-226.292c-0.025 0-0.055 0-0.085 0-62.692 0-113.514 50.822-113.514 113.514 0 0.030 0 0.060 0 0.090v-0.005z" />
<glyph unicode="&#xe963;" horiz-adv-x="1026" d="M78.863 238.92h67.605v-65.285h-67.605v65.285z" />
<glyph unicode="&#xe964;" horiz-adv-x="1026" d="M360.483 376.223c14.23-9.304 25.457-22.12 32.607-37.242l0.234-0.549c7.603-17.134 12.030-37.122 12.030-58.143s-4.427-41.009-12.399-59.081l0.369 0.938c-7.342-15.756-18.578-28.645-32.499-37.778l-0.342-0.21c-13.011-8.277-28.864-13.191-45.865-13.191-0.453 0-0.905 0.003-1.357 0.010l0.068-0.001c-0.651-0.020-1.418-0.031-2.187-0.031-14.713 0-28.463 4.125-40.156 11.283l0.337-0.192c-11.368 7.168-20.174 17.487-25.3 29.729l-0.157 0.424v-140.131h-65.285v314.659h65.285v-38.555c5.279 12.678 14.086 23.007 25.194 30.026l0.264 0.156c11.363 6.965 25.121 11.090 39.841 11.090 0.761 0 1.519-0.011 2.275-0.033l-0.111 0.003c0.395 0.007 0.861 0.010 1.328 0.010 16.988 0 32.828-4.915 46.175-13.4l-0.35 0.208zM258.652 318.179c-8.207-10.309-13.167-23.52-13.167-37.89s4.961-27.581 13.263-38.014l-0.096 0.125c8.683-8.742 20.71-14.154 34.001-14.154 13.094 0 24.961 5.252 33.61 13.764l-0.006-0.006c7.981 10.492 12.786 23.779 12.786 38.187s-4.805 27.694-12.9 38.343l0.114-0.156c-8.042 8.497-19.399 13.785-31.991 13.785-0.637 0-1.271-0.014-1.902-0.040l0.090 0.003c-0.43 0.015-0.935 0.023-1.443 0.023-12.742 0-24.232-5.359-32.34-13.947l-0.020-0.022z" />
<glyph unicode="&#xe965;" horiz-adv-x="1026" d="M632.741 364.541c13.543-16.679 21.744-38.172 21.744-61.58 0-1.98-0.059-3.947-0.174-5.898l0.013 0.269v-123.725h-65.285v115.975c0.051 0.82 0.080 1.778 0.080 2.743 0 11.748-4.314 22.488-11.445 30.723l0.050-0.059c-7.131 7.454-17.157 12.088-28.266 12.088-0.604 0-1.205-0.014-1.803-0.041l0.085 0.003c-0.592 0.031-1.286 0.048-1.984 0.048-11.606 0-22.081-4.844-29.513-12.62l-0.015-0.015c-7.319-8.756-11.764-20.134-11.764-32.551 0-1.177 0.040-2.344 0.119-3.501l-0.009 0.157v-113.146h-65.229v213.28h65.342v-38.951c6.093 12.666 15.447 22.937 26.987 29.978l0.31 0.175c11.64 6.964 25.678 11.082 40.677 11.082 0.666 0 1.33-0.008 1.992-0.024l-0.098 0.002c0.984 0.047 2.137 0.074 3.297 0.074 21.779 0 41.354-9.438 54.857-24.446l0.059-0.067z" />
<glyph unicode="&#xe966;" horiz-adv-x="1026" d="M820.422 378.316c11.47-7.225 20.417-17.528 25.799-29.754l0.168-0.427v38.583h65.059v-211.923c0.010-0.588 0.016-1.282 0.016-1.977 0-18.791-4.23-36.595-11.789-52.51l0.317 0.743c-7.83-16.061-19.88-29.029-34.72-37.765l-0.412-0.224c-15.809-8.943-34.718-14.212-54.857-14.212-1.389 0-2.773 0.025-4.15 0.075l0.199-0.006c-1.878-0.104-4.076-0.164-6.288-0.164-26.53 0-51.064 8.545-71 23.034l0.348-0.241c-18.727 14.859-31.488 36.533-34.521 61.217l-0.045 0.448h64.522c1.904-8.513 6.947-15.606 13.824-20.15l0.121-0.075c7.458-4.598 16.496-7.321 26.171-7.321 0.804 0 1.603 0.019 2.398 0.056l-0.112-0.004c0.614-0.029 1.334-0.046 2.058-0.046 11.774 0 22.51 4.44 30.626 11.737l-0.042-0.037c7.81 8.653 12.589 20.173 12.589 32.809 0 1.555-0.072 3.092-0.214 4.61l0.015-0.194v37.593c-5.546-12.647-14.494-22.942-25.691-29.991l-0.276-0.162c-11.366-6.965-25.126-11.090-39.849-11.090-0.758 0-1.514 0.011-2.267 0.033l0.111-0.003c-0.388-0.006-0.846-0.010-1.305-0.010-16.996 0-32.843 4.914-46.2 13.4l0.351-0.208c-14.261 9.345-25.497 22.233-32.609 37.436l-0.232 0.552c-7.599 17.13-12.024 37.113-12.024 58.129s4.424 40.998 12.393 59.067l-0.369-0.938c7.385 15.67 18.612 28.486 32.497 37.579l0.344 0.211c12.997 8.277 28.837 13.192 45.825 13.192 0.467 0 0.933-0.004 1.399-0.011l-0.070 0.001c0.636 0.019 1.384 0.029 2.134 0.029 14.731 0 28.498-4.125 40.21-11.282l-0.339 0.192zM765.744 318.349c-7.989-10.49-12.8-23.776-12.8-38.187s4.811-27.697 12.914-38.342l-0.113 0.155c8.641-8.497 20.502-13.744 33.589-13.744 13.284 0 25.306 5.406 33.985 14.137l0.002 0.002c8.207 10.309 13.167 23.52 13.167 37.89s-4.961 27.581-13.263 38.014l0.096-0.125c-8.123 8.609-19.609 13.969-32.348 13.969-0.512 0-1.021-0.009-1.528-0.026l0.074 0.002c-0.539 0.024-1.172 0.037-1.808 0.037-12.584 0-23.934-5.288-31.947-13.764l-0.019-0.021z" />
<glyph unicode="&#xe967;" d="M333.636 4.608c1.937 3.007 3.088 6.679 3.088 10.62 0 10.939-8.867 19.806-19.806 19.806-6.998 0-13.148-3.629-16.671-9.108l-0.047-0.079c-6.581-10.233-13.909-19.111-22.158-27.037l-0.049-0.047c-1.167 30.329-7.802 58.804-18.941 84.895l0.592-1.561c-0.188 0.439-0.404 0.864-0.62 1.296-3.352 6.486-10.008 10.843-17.682 10.843-2.757 0-5.383-0.562-7.769-1.579l0.13 0.049c-2.094-0.892-3.894-2.047-5.467-3.451l0.019 0.017c-4.56-28.341-28.842-49.729-58.12-49.729-32.49 0-58.828 26.338-58.828 58.828 0 29.43 21.611 53.813 49.83 58.144l0.328 0.041c0.418 0.488 0.808 1.003 1.184 1.539l0.084 0.111 0.049 0.084c2.144 3.071 3.426 6.883 3.426 10.994 0 1.391-0.147 2.747-0.425 4.054l0.023-0.127c0 0.118-0.056 0.244-0.084 0.362-0.098 0.425-0.195 0.85-0.32 1.268s-0.293 0.926-0.46 1.393l-0.070 0.209c-1.204 3.126-3.065 5.766-5.426 7.853l-0.021 0.018-0.223 0.216-0.077 0.056c-0.181 0.153-0.383 0.293-0.571 0.439-1.36 1.073-2.915 1.994-4.584 2.696l-0.132 0.049c-24.494 10.51-52.925 17.12-82.756 18.265l-0.446 0.014c26.711 27.763 64.182 45.009 105.68 45.009 20.023 0 39.108-4.015 56.494-11.284l-0.968 0.359c36.456-15.446 64.885-43.895 79.936-79.391l0.367-0.976c1.037-2.485 2.478-4.605 4.262-6.38l0.001-0.001c3.585-3.587 8.539-5.805 14.011-5.805 10.941 0 19.811 8.87 19.811 19.811 0 2.754-0.562 5.377-1.577 7.76l0.049-0.129c-19.5 46.127-55.452 82.109-100.325 101.182l-1.232 0.465-0.307 0.139c-20.871 8.795-45.134 13.906-70.59 13.906-70.126 0-131.195-38.782-162.927-96.069l-0.485-0.954c-0.063-0.104-0.091-0.216-0.146-0.32-0.379-0.7-0.762-1.545-1.088-2.418l-0.048-0.145c-0.056-0.167-0.104-0.334-0.153-0.509-0.232-0.666-0.451-1.49-0.615-2.333l-0.019-0.119c0-0.146-0.070-0.3-0.091-0.446-0.133-0.792-0.221-1.72-0.243-2.665v-0.024c0-0.237 0-0.474 0-0.697 0.002-0.95 0.068-1.883 0.193-2.797l-0.012 0.108c0.056-0.39 0.181-0.766 0.258-1.149 0.812-3.916 2.693-7.305 5.323-9.948l-0.001 0.001 0.056-0.049c0.553-0.542 1.139-1.057 1.751-1.539l0.046-0.035c0.293-0.223 0.606-0.425 0.913-0.641 0.411-0.286 0.822-0.557 1.247-0.808 0.174-0.098 0.32-0.223 0.495-0.313s0.46-0.223 0.697-0.334l0.592-0.286c0.46-0.216 0.926-0.404 1.393-0.578l0.655-0.237c0.502-0.16 1.003-0.3 1.505-0.418 0.202-0.049 0.397-0.111 0.599-0.153 0.563-0.128 1.275-0.246 1.998-0.326l0.092-0.008h0.341c0.613-0.049 1.219-0.077 1.825-0.070h0.697c0.522 0 1.038 0.063 1.546 0.132h0.369c8.584 1.31 18.487 2.058 28.565 2.058 18.925 0 37.234-2.639 54.578-7.568l-1.404 0.341c-16.417-26.524-26.146-58.688-26.146-93.125 0-10.869 0.969-21.511 2.826-31.845l-0.162 1.086v-0.042c0.376-2.059 1.012-3.897 1.884-5.594l-0.052 0.112c0.125-0.237 0.251-0.474 0.383-0.697 0.362-0.651 0.701-1.188 1.065-1.706l-0.041 0.062c0.174-0.251 0.334-0.495 0.515-0.697 0.535-0.709 1.074-1.336 1.649-1.927l-0.005 0.005 0.084-0.091 0.091-0.084c0.587-0.57 1.214-1.109 1.872-1.608l0.050-0.036c0.237-0.188 0.488-0.348 0.738-0.522 0.45-0.318 0.978-0.65 1.523-0.955l0.093-0.048c0.251-0.139 0.495-0.279 0.752-0.411 0.628-0.326 1.398-0.663 2.191-0.951l0.142-0.045 0.167-0.063c0.814-0.293 1.793-0.552 2.8-0.729l0.112-0.016h0.084c9.253-1.698 19.901-2.669 30.777-2.669 34.435 0 66.597 9.737 93.881 26.607l-0.767-0.442c4.582-15.929 7.217-34.225 7.217-53.136 0-10.086-0.75-19.998-2.196-29.682l0.134 1.093c0-0.202 0-0.404-0.049-0.606-0.042-0.355-0.070-0.697-0.091-1.059s-0.042-0.697-0.049-1.052 0-0.885 0.049-1.331 0.049-0.697 0.091-1.094c0.063-0.571 0.146-1.135 0.265-1.707 0.070-0.327 0.16-0.648 0.244-0.968s0.188-0.697 0.3-1.073 0.251-0.697 0.39-1.066 0.23-0.592 0.362-0.885 0.348-0.752 0.543-1.122c0.063-0.125 0.111-0.251 0.181-0.376s0.118-0.174 0.174-0.272c0.381-0.672 0.745-1.234 1.137-1.774l-0.037 0.053c0.139-0.202 0.272-0.404 0.418-0.599 0.527-0.686 1.058-1.295 1.625-1.869l-0.002 0.002 0.056-0.070c2.513-2.49 5.697-4.307 9.256-5.156l0.134-0.027c0.578-0.132 1.142-0.3 1.721-0.39v0c0.787-0.113 1.698-0.179 2.624-0.181h0.002c0.265 0 0.522 0 0.787 0 0.949 0.020 1.861 0.103 2.754 0.245l-0.113-0.015 0.432 0.091c0.983 0.185 1.823 0.407 2.639 0.681l-0.139-0.040 0.439 0.139c1.067 0.384 1.964 0.79 2.822 1.257l-0.105-0.052c0.069 0.027 0.124 0.053 0.177 0.081l-0.010-0.005c0.132 0.070 0.258 0.153 0.383 0.223s0.446 0.251 0.662 0.39c27.58 15.414 50.184 36.686 66.709 62.254l0.444 0.733z" />
<glyph unicode="&#xe968;" d="M325.214 55.961c2.624-2.638 5.996-4.528 9.771-5.327l0.127-0.023c1.238-0.275 2.66-0.433 4.119-0.433 9.482 0 17.407 6.669 19.34 15.572l0.024 0.131c1.355 6.066 2.514 13.535 3.224 21.136l0.057 0.751c0.050 0.53 0.079 1.146 0.079 1.769 0 10.943-8.871 19.814-19.814 19.814-10.32 0-18.797-7.89-19.729-17.966l-0.006-0.078c-0.59-6.558-1.496-12.439-2.739-18.194l0.175 0.968c-0.276-1.238-0.434-2.66-0.434-4.12 0-5.468 2.218-10.418 5.804-13.999v0z" />
<glyph unicode="&#xe969;" d="M604.237 675.203c2.7-7.945 10.094-13.56 18.799-13.56 2.246 0 4.405 0.374 6.418 1.063l-0.139-0.041c6.060 2.034 12.177 3.971 18.272 5.782 8.452 2.387 14.542 10.031 14.542 19.098 0 10.941-8.87 19.811-19.811 19.811-2.159 0-4.238-0.345-6.184-0.984l0.14 0.040c-6.52-1.957-13.005-3.992-19.505-6.165-7.937-2.702-13.545-10.091-13.545-18.789 0-2.237 0.371-4.387 1.055-6.393l-0.041 0.139z" />
<glyph unicode="&#xe96a;" d="M1007.226 375.463l-14.009 14.002 14.009 14.009c3.557 3.58 5.755 8.514 5.755 13.961 0 10.941-8.87 19.811-19.811 19.811-5.447 0-10.381-2.198-13.962-5.756l-14.008-14.008-14.009 14.009c-3.561 3.45-8.422 5.577-13.779 5.577-10.941 0-19.811-8.87-19.811-19.811 0-5.359 2.128-10.221 5.585-13.788l14.004-14.004-14.009-14.002c-3.452-3.561-5.58-8.423-5.58-13.783 0-10.941 8.87-19.811 19.811-19.811 5.357 0 10.218 2.127 13.784 5.582l14.004 14.004 14.009-14.009c3.58-3.557 8.514-5.755 13.961-5.755 10.941 0 19.811 8.87 19.811 19.811 0 5.447-2.198 10.381-5.756 13.962l0.001-0.001z" />
<glyph unicode="&#xe96b;" d="M755.050 175.832l-28.010 28.017 28.010 28.010c3.452 3.561 5.58 8.423 5.58 13.783 0 10.941-8.87 19.811-19.811 19.811-5.357 0-10.218-2.127-13.784-5.582l-28.012-28.012-28.017 28.017c-3.561 3.45-8.422 5.577-13.779 5.577-10.941 0-19.811-8.87-19.811-19.811 0-5.359 2.128-10.221 5.585-13.788l28.005-28.005-28.010-28.017c-3.584-3.584-5.801-8.536-5.801-14.005 0-10.939 8.868-19.806 19.806-19.806 5.469 0 10.421 2.217 14.005 5.801l28.017 28.010 28.017-28.010c3.584-3.584 8.536-5.801 14.005-5.801 10.939 0 19.806 8.868 19.806 19.806 0 5.469-2.217 10.421-5.801 14.005v0z" />
<glyph unicode="&#xe96c;" d="M507.813 870.153l-28.017 28.010 28.017 28.017c3.45 3.561 5.577 8.422 5.577 13.779 0 10.941-8.87 19.811-19.811 19.811-5.359 0-10.221-2.128-13.788-5.585l-28.005-28.005-28.017 28.010c-3.584 3.584-8.536 5.801-14.005 5.801-10.939 0-19.806-8.868-19.806-19.806 0-5.469 2.217-10.421 5.801-14.005l28.010-28.017-28.010-28.010c-3.452-3.561-5.58-8.423-5.58-13.783 0-10.941 8.87-19.811 19.811-19.811 5.357 0 10.218 2.127 13.784 5.582l28.012 28.012 28.010-28.017c3.58-3.557 8.514-5.755 13.961-5.755 10.941 0 19.811 8.87 19.811 19.811 0 5.447-2.198 10.381-5.756 13.962l0.001-0.001z" />
<glyph unicode="&#xe96d;" d="M266.275 662.977l-14.009 14.009 14.009 14.009c3.45 3.561 5.577 8.422 5.577 13.779 0 10.941-8.87 19.811-19.811 19.811-5.359 0-10.221-2.128-13.788-5.585l-14.004-13.997-14.009 14.002c-3.584 3.584-8.536 5.801-14.005 5.801-10.939 0-19.806-8.868-19.806-19.806 0-5.469 2.217-10.421 5.801-14.005l14.009-14.009-14.009-14.009c-3.584-3.584-5.801-8.536-5.801-14.005 0-10.939 8.868-19.806 19.806-19.806 5.469 0 10.421 2.217 14.005 5.801l14.009 14.002 14.009-14.002c3.561-3.452 8.423-5.58 13.783-5.58 10.941 0 19.811 8.87 19.811 19.811 0 5.357-2.127 10.218-5.582 13.784l0.005-0.005z" />
<glyph unicode="&#xe96e;" d="M558.268 486.313c-3.583 3.59-8.536 5.811-14.009 5.811s-10.426-2.221-14.008-5.811v0l-28.010-28.017c-3.584-3.584-5.801-8.536-5.801-14.005 0-10.939 8.868-19.806 19.806-19.806 5.469 0 10.421 2.217 14.005 5.801l28.017 28.010c3.592 3.582 5.814 8.536 5.814 14.009s-2.222 10.427-5.814 14.008v0z" />
<glyph unicode="&#xe96f;" d="M396.211 6.308c86.762 37.78 146.32 122.775 146.32 221.68 0 3.863-0.091 7.706-0.271 11.524l0.020-0.54c152.197 105.157 252.713 275.755 260.67 470.224l0.039 1.186c0 0.327-0.056 0.634-0.056 0.954s0.056 0.529 0.049 0.808-0.118 0.697-0.16 1.045c-0.076 0.819-0.187 1.547-0.336 2.261l0.023-0.129c-0.125 0.592-0.279 1.163-0.46 1.735-0.237 0.797-0.474 1.444-0.744 2.074l0.047-0.123c-0.237 0.557-0.502 1.087-0.787 1.616-0.362 0.679-0.706 1.242-1.079 1.783l0.041-0.063c-0.37 0.543-0.725 1.008-1.101 1.454l0.022-0.026c-0.437 0.54-0.872 1.024-1.331 1.484v0c-0.425 0.425-0.871 0.815-1.337 1.198s-1.024 0.822-1.574 1.191c-0.439 0.299-0.96 0.616-1.498 0.906l-0.098 0.048c-0.557 0.307-1.122 0.585-1.714 0.843s-1.24 0.474-1.881 0.697-1.163 0.341-1.769 0.467c-0.586 0.128-1.311 0.239-2.049 0.308l-0.076 0.006c-0.355 0-0.697 0.132-1.038 0.153s-0.536-0.049-0.815-0.049-0.62 0.070-0.947 0.056c-31.561-1.407-61.245-5.004-90.186-10.674l3.808 0.622c-9.299-1.747-16.24-9.803-16.24-19.481 0-10.938 8.867-19.804 19.804-19.804 1.354 0 2.676 0.136 3.954 0.395l-0.127-0.022c16.111 3.244 36.191 6.060 56.575 7.808l2.127 0.147c-6.255-75.506-26.408-144.971-57.906-207.761l1.482 3.26c-69.537 24.358-123.357 78.042-147.386 145.823l-0.516 1.668c6.026 2.995 12.093 5.928 18.244 8.714 6.92 3.188 11.637 10.064 11.637 18.042 0 10.938-8.867 19.805-19.805 19.805-2.96 0-5.768-0.649-8.29-1.813l0.123 0.051c-11.403-5.162-22.584-10.714-33.59-16.551-1.158-0.496-2.144-1.032-3.074-1.647l0.071 0.044c-85.671-46.776-156.534-110.583-210.1-187.355l-1.304-1.973c-3.492 0.181-7.582 0.284-11.697 0.284-99.293 0-184.567-60.019-221.523-145.756l-0.601-1.566c-0.153-0.348-0.237-0.697-0.362-1.066s-0.181-0.515-0.258-0.773c-0.267-0.771-0.509-1.708-0.68-2.67l-0.017-0.116c0-0.181-0.070-0.362-0.091-0.543-0.070-0.522-0.111-1.038-0.132-1.553 0-0.293 0-0.578 0-0.864 0-0.019 0-0.041 0-0.063 0-0.864 0.053-1.716 0.156-2.552l-0.010 0.1c0.042-0.313 0.070-0.634 0.125-0.947 0.077-0.481 0.188-0.947 0.3-1.393 0.084-0.327 0.181-0.655 0.279-0.982 0.153-0.515 0.32-1.031 0.522-1.533 0.266-0.707 0.529-1.285 0.823-1.844l-0.043 0.089c0.167-0.327 0.355-0.641 0.543-0.961q0.39-0.697 0.815-1.296c0.188-0.265 0.369-0.536 0.564-0.794 0.493-0.643 0.988-1.213 1.515-1.752l-0.004 0.004c0.063-0.070 0.111-0.146 0.174-0.209 0.334-0.327 0.697-0.641 1.045-0.947l0.084-0.077c0.474-0.404 0.968-0.794 1.484-1.156v0c0.921-0.651 1.97-1.257 3.073-1.767l0.124-0.051 0.132-0.063 0.293-0.146c0.348-0.146 0.697-0.258 1.066-0.39l0.502-0.181c0.418-0.139 0.836-0.251 1.261-0.362l0.641-0.16c0.39-0.091 0.78-0.153 1.17-0.216 0.258-0.042 0.515-0.091 0.773-0.118s0.697-0.070 1.045-0.091 0.627-0.042 0.947-0.049 0.578 0 0.871 0 0.745 0 1.122 0.049l0.697 0.077c0.425 0.049 0.85 0.111 1.275 0.188l0.529 0.111c0.467 0.098 0.933 0.209 1.393 0.341l0.348 0.111c0.397 0.125 0.794 0.237 1.191 0.39 21.755 8.531 46.947 13.475 73.293 13.475 113.804 0 206.061-92.257 206.061-206.061 0-26.168-4.878-51.197-13.774-74.227l0.478 1.408c-0.759-1.803-1.269-3.893-1.424-6.081l-0.004-0.063v-0.104c-0.031-0.41-0.048-0.887-0.048-1.369s0.018-0.959 0.052-1.432l-0.004 0.001c0.074-1.033 0.22-1.986 0.435-2.911l-0.024 0.125v-0.049c0.205-0.964 0.445-1.785 0.738-2.58l-0.041 0.128 0.125-0.341c0.077-0.209 0.139-0.418 0.223-0.62 0.655-1.495 1.41-2.782 2.294-3.967l-0.037 0.052c0.104-0.158 0.207-0.294 0.318-0.424l-0.005 0.006c0.537-0.708 1.080-1.335 1.66-1.925l-0.003 0.003c0.604-0.594 1.249-1.151 1.929-1.664l0.049-0.035c0.174-0.139 0.362-0.265 0.543-0.397 0.55-0.39 1.128-0.752 1.721-1.094 0.202-0.111 0.39-0.23 0.592-0.334 0.572-0.31 1.274-0.633 1.997-0.915l0.135-0.046h0.104c0.265-0.098 0.529-0.174 0.801-0.265 0.585-0.188 1.177-0.355 1.769-0.495l0.745-0.16c0.723-0.148 1.59-0.262 2.473-0.318l0.056-0.003h0.202c0.243-0.011 0.528-0.018 0.814-0.018 0.608 0 1.21 0.029 1.804 0.086l-0.075-0.006h0.397c2.491 0.219 4.781 0.866 6.869 1.87l-0.119-0.051zM136.053 346.631c34.37 47.728 88.217 79.577 149.659 83.856l0.632 0.035c-15.126-25.415-29.54-55.11-41.469-86.040l-1.393-4.107c-20.318 5.997-43.66 9.447-67.808 9.447-13.991 0-27.711-1.158-41.070-3.384l1.448 0.199zM280.618 326.541c47.169 122.29 131.644 221.469 239.289 285.951l2.577 1.431c28.906-76.035 87.975-134.955 162.199-163.024l1.913-0.635c-43.873-73.925-101.776-135.020-170.512-181.242l-2-1.267c-2.32-0.997-4.306-2.327-6.005-3.956l0.007 0.007c-31.455-20.675-67.552-39.233-105.611-53.832l-3.909-1.318c-24.466 52.327-65.61 93.457-116.475 117.286l-1.473 0.62zM412.317 171.464c35.077 13.258 64.758 27.533 93.001 44.004l-2.91-1.567c-4.451-61.865-36.242-115.496-83.227-149.361l-0.595-0.408c2.001 11.865 3.144 25.534 3.144 39.47 0 24.165-3.438 47.527-9.851 69.623l0.438-1.761z" />
<glyph unicode="&#xe970;" glyph-name="Rectangle-64" data-tags="Rectangle 64" d="M32 960h953.072v-542.928c0-265.097-214.903-480-480-480v0h-473.072v1022.928z" />
<glyph unicode="&#xe971;" glyph-name="rightarrow" data-tags="rightarrow" d="M211.862 65.977l380.469 380.469-365.992 365.992 147.597 147.562 387.778-387.814c32.122-32.212 51.984-76.666 51.984-125.758s-19.862-93.545-51.988-125.762l-402.287-402.287z" />
</font>
</defs>
</svg>
